<svg id="圖層_1" data-name="圖層 1" xmlns="http://www.w3.org/2000/svg" viewBox="0 0 607.81 390.52"><defs><style>.cls-1{fill:#f3d55b;}.cls-2{fill:#f0c419;}.cls-3{fill:#7f8c8d;}.cls-4{fill:#56595e;}.cls-5{fill:#e57e25;}</style></defs><g id="Page-1"><g id="_055---Meteor" data-name="055---Meteor"><path id="Shape" class="cls-1" d="M524.84,265.31l71.43-48.95a13.72,13.72,0,0,0-6.5-25l-78-7.16a13.7,13.7,0,0,1-10-21.5A13.71,13.71,0,0,0,494,141.58l-33.85-8.72a13.45,13.45,0,0,1-7.66-20.74l0-.05a13.46,13.46,0,0,0-10.1-21.17L202.81,79.74l0,.12a195.25,195.25,0,1,0,39.35,382.87l0,.12,239.24-72.57a13.69,13.69,0,0,0,9.6-15.52l-2.79-15.88a13.69,13.69,0,0,1,5.33-13.39l41-30.45a13.7,13.7,0,0,0-2.25-23.37L526.66,289a13.71,13.71,0,0,1-1.82-23.65Z" transform="translate(5.6 -79.41)"/><path id="Shape-2" data-name="Shape" class="cls-2" d="M87.91,420.39c-4.36-3.05-8.66-6.36-12.77-9.81A177.9,177.9,0,0,1,201.71,97.17l22,1.43-.09-.51L435,107.93a30.82,30.82,0,0,0,20.72,41.77l29.18,7.51a30.6,30.6,0,0,0-2.44,19.37,31,31,0,0,0,27.63,24.95L578,207.79,515,251a31.08,31.08,0,0,0-.3,51,30.69,30.69,0,0,0,4.51,2.63l.17.12-36.17,26.82a30.9,30.9,0,0,0-12.08,30.34l2.23,12.69L241.24,445l-3.71,1A177.33,177.33,0,0,1,87.91,420.39Z" transform="translate(5.6 -79.41)"/><path id="Shape-3" data-name="Shape" class="cls-3" d="M287.39,381l-14.59,8.05A88,88,0,0,0,259,398.53a88.15,88.15,0,0,1-90.53,13.62L163.39,410q-3.18-1.34-6.47-2.41l-34.87-11.5a87.89,87.89,0,0,1-25.63-13.44l-10-7.56a88.16,88.16,0,0,1-32.28-48.84l-6.64-26.48-5.45-20.46A88.17,88.17,0,0,1,55.13,205.8l2.49-3.56a88.26,88.26,0,0,1,23.32-22.72L112,158.91c1.91-1.27,3.88-2.46,5.9-3.59l18-10a88.09,88.09,0,0,1,60.3-9.37l23.43,4.75,37.4,9.5A88.18,88.18,0,0,1,288.16,165l8.66,6.47a88.2,88.2,0,0,1,32.87,49.69l4.24,17.31a88.24,88.24,0,0,1,2.53,21l0,33.69a88,88,0,0,1-4.33,27.27l-3.49,10.72A88.22,88.22,0,0,1,287.39,381Z" transform="translate(5.6 -79.41)"/><circle id="Oval" class="cls-4" cx="121.62" cy="164.67" r="21.69"/><circle id="Oval-2" data-name="Oval" class="cls-4" cx="215.11" cy="129.5" r="34.71"/><circle id="Oval-3" data-name="Oval" class="cls-4" cx="275.52" cy="224.77" r="26.03"/><circle id="Oval-4" data-name="Oval" class="cls-4" cx="161.77" cy="251.06" r="34.71"/><path id="Shape-4" data-name="Shape" class="cls-5" d="M347.43,178.36a8.68,8.68,0,0,1,5.17-15.79l93.84,2.14a8.68,8.68,0,0,1-.39,17.36l-93.84-2.15A8.7,8.7,0,0,1,347.43,178.36Z" transform="translate(5.6 -79.41)"/><path id="Shape-5" data-name="Shape" class="cls-5" d="M370.87,311.3a8.68,8.68,0,0,1,3-15.55l101.67-24.16a8.68,8.68,0,1,1,4,16.88L377.85,312.63A8.69,8.69,0,0,1,370.87,311.3Z" transform="translate(5.6 -79.41)"/><path id="Shape-6" data-name="Shape" class="cls-5" d="M365.11,242.65a8.68,8.68,0,0,1,4.25-15.76L529.9,213.4a8.68,8.68,0,1,1,1.45,17.3L370.81,244.2A8.74,8.74,0,0,1,365.11,242.65Z" transform="translate(5.6 -79.41)"/></g></g></svg>