<?xml version="1.0" encoding="utf-8"?>
<!-- Generator: Adobe Illustrator 25.3.1, SVG Export Plug-In . SVG Version: 6.00 Build 0)  -->
<svg version="1.1" id="Capa_1" xmlns="http://www.w3.org/2000/svg" xmlns:xlink="http://www.w3.org/1999/xlink" x="0px" y="0px"
	 viewBox="0 0 598.9 383.5" style="enable-background:new 0 0 598.9 383.5;" xml:space="preserve">
<style type="text/css">
	.st0{fill:#FCF05A;}
	.st1{fill:#D3843D;}
	.st2{fill:#66342E;}
	.st3{fill:#AD6327;}
	.st4{fill:#E97424;}
</style>
<g>
	<path class="st0" d="M463.4,204.4c-65.4,48.8-113,6.1-113,6.1c33.2-27.1,71.3-47.6,112.3-60.1c-29.1-7.3-46.5-35.5-94.6-31.5
		c-62.4-2.3-84.6-20.9-120.8-33.2c-57.7-19.6-108.8-22.5-169.5,9.1c-16.1,10-30.7,22.2-43.4,36.3c-53.1,59.2-42.9,144.3,16.3,197.4
		c50.3,45.2,123.6,54,182,12.9c32.7-24.4,49.5-42.6,122.4-40.6c209.9,5.7,148.3-57.1,243.7-103.8
		C598.9,197.1,528.7,155.6,463.4,204.4z"/>
	<path class="st1" d="M224.4,290.9c-2.7,3-5.5,5.8-8.5,8.4c-4,3.6-8.4,6.9-13,9.8c-39.4,25.2-90.7,21-125.4-10.2
		c-13-11.7-2.1-23.8-7.8-39.2l-12.5-22c10.7-11.9-1.8-33.9-11.1-41.4c11.7-48.4,57-81.1,106.7-77l18,24.1l6.5,8.6
		c2.5,1.1,5.1,1.9,7.7,2.4c11.5,2,23.3-1.8,31.5-10.2l41.1,26.1l7.8,39.2c-4.2,7.2-9.2,13.9-14.7,20.1
		C248.9,252.3,239.7,273.9,224.4,290.9L224.4,290.9z"/>
	
		<ellipse transform="matrix(0.9986 -5.375827e-02 5.375827e-02 0.9986 -10.8135 11.5077)" class="st2" cx="208.5" cy="206.8" rx="17" ry="28.3"/>
	<path class="st3" d="M125.1,159l29.1,15.4l-7.5,14.1l-29.1-15.4L125.1,159z"/>
	<path class="st3" d="M82.6,206.5l13.3-8.9l18.5,27.3l-13.3,8.9L82.6,206.5z"/>
	<path class="st3" d="M163.1,241.7l15.8,2.3l-4.1,28.6l-15.8-2.3L163.1,241.7z"/>
	<path class="st3" d="M90.9,256.4l13.9-7.9l12.5,22l-13.9,7.9L90.9,256.4z"/>
	<path class="st3" d="M215.9,299.3c-4,3.6-8.4,6.9-13,9.8l-2.5,1.6l-1.6-29.6l-11.6-3.2l4.2-15.4l10.6,2.9l7.3-16.8l14.7,6.3
		l-9.4,21.5L215.9,299.3z"/>
	<path class="st3" d="M181,181.6l-15.8-2.3l2.9-20.2l-31.4-2.7l1.4-15.9l32.7,2.9l6.5,8.6c2.5,1.1,5.1,1.9,7.7,2.4L181,181.6z"/>
	<path class="st3" d="M140.5,204.8l11.9,10.7l-10.7,11.9l-11.9-10.7L140.5,204.8z"/>
	<path class="st3" d="M163.1,203.6l11.9,10.7l-10.7,11.9l-11.9-10.7L163.1,203.6z"/>
	<path class="st4" d="M170.5,109.2l-3.4-15.6c2.9-0.7,30.4-5.4,108.5,28.9c49.7,24.2,109.3,16,109.8,15.9l2.3,15.8
		c-2.6,0.4-64.9,9-118.9-17.2C196.2,105,170.7,109.1,170.5,109.2L170.5,109.2z"/>
	<path class="st4" d="M268.4,289.6l-9.5-12.9c1.4-1.1,36.4-26.2,135.4-14.2c39.8,3.5,80.4-10.8,88.2-19.5l11.9,10.7
		c-13,14.5-60.3,28.4-101.8,24.7C300.9,267.4,268.7,289.4,268.4,289.6L268.4,289.6z"/>
	<path class="st2" d="M491.9,208.6l11.9,10.7l-10.7,11.9l-11.9-10.7L491.9,208.6z"/>
	<path class="st4" d="M286,193.6l1.4-15.9c0.4,0,37.6,3.1,57.2-8l7.9,13.9C328.6,197.2,287.8,193.7,286,193.6L286,193.6z"/>
	<path class="st4" d="M284.3,244.8l-0.9-16l0.4,8l-0.5-8c22.6-2.6,44.1-11.1,62.3-24.7l9.6,12.8C334.5,232.5,310,242.1,284.3,244.8z
		"/>
	<path class="st2" d="M525.8,206.7l11.9,10.7L527,229.3l-11.9-10.7L525.8,206.7z"/>
	<path class="st1" d="M347.2,46.4l-20.6,13.9l-6.8,4.6l-9.6-2.6l-24.9-6.9l-7.8-39.2l39.2-7.8L347.2,46.4z"/>
	<path class="st2" d="M326.7,60.3l-6.8,4.6l-9.6-2.6l-11-27.8l14.9-5.8L326.7,60.3z"/>
	<path class="st1" d="M415.6,54.1l-27.9,7.2l12.5,22l28.5,4.1L415.6,54.1z"/>
	<path class="st1" d="M399.4,383.5l-34.5-9.5l-7.8-39.2L391,333l23.8,21.4L399.4,383.5z"/>
	<g>
		<path class="st2" d="M394.7,362.7l-15.8-2.3l3.9-26.9l8.1-0.4l7.1,6.4L394.7,362.7z"/>
		<path class="st2" d="M322.6,325.3l11.9,10.7l-10.7,11.9l-11.9-10.7L322.6,325.3z"/>
		<path class="st2" d="M446.9,318.6l11.9,10.7l-10.7,11.9l-11.9-10.7L446.9,318.6z"/>
		<path class="st2" d="M468,79.6l11.9,10.7l-10.7,11.9l-11.9-10.7L468,79.6z"/>
		<path class="st2" d="M367.4,0l11.9,10.7l-10.7,11.9l-11.9-10.7L367.4,0z"/>
		<path class="st2" d="M504.9,134.2l11.9,10.7l-10.7,11.9l-11.9-10.7L504.9,134.2z"/>
		
			<ellipse transform="matrix(0.6681 -0.7441 0.7441 0.6681 -101.9781 139.5061)" class="st2" cx="105.4" cy="184.1" rx="24" ry="16"/>
		<path class="st2" d="M137.6,256c-13.2,0.7-27.8,9.6-27.3,18.5c0.5,8.8,15.9,16.1,29.2,15.4c13.2-0.7,27.8-9.6,27.3-18.5
			S150.8,255.3,137.6,256z"/>
	</g>
</g>
</svg>
