<?xml version="1.0" encoding="utf-8"?>
<!-- Generator: Adobe Illustrator 25.3.1, SVG Export Plug-In . SVG Version: 6.00 Build 0)  -->
<svg version="1.1" id="Capa_1" xmlns="http://www.w3.org/2000/svg" xmlns:xlink="http://www.w3.org/1999/xlink" x="0px" y="0px"
	 viewBox="0 0 644.8 412.6" style="enable-background:new 0 0 644.8 412.6;" xml:space="preserve">
<style type="text/css">
	.st0{fill:#FCC400;}
	.st1{fill:#E30E08;}
	.st2{fill:#C40606;}
	.st3{fill:#E3E8EC;}
	.st4{fill:#D5D8DB;}
	.st5{fill:#A0D9F2;}
</style>
<path class="st0" d="M138.5,261.6c-22.5,5.4-60.5,9.3-95.6-12.4l28-14.9c0,0-42-8.4-70.9-27.9c29-19.6,70.9-27.9,70.9-27.9l-28-14.9
	c35.1-21.7,73.1-17.8,95.6-12.4l72,47L138.5,261.6z"/>
<path class="st1" d="M175.3,412.6c-62.1,0-112.7-48.7-115.9-109.9c14.1,11.4,37.9,15,57.6-0.9c8.2-6.6,15.7-16.6,21.4-30.7l0-129.4
	c-5.8-14.2-13.3-24.1-21.4-30.7C97.3,95,73.5,98.6,59.5,109.9C62.6,48.7,113.3,0,175.3,0C212,0,244.8,17,266,43.7
	c9.7,12.2,17.1,26.4,21.3,41.9l0,241.5c-4.2,15.5-11.5,29.7-21.3,41.9C244.8,395.6,212,412.6,175.3,412.6z"/>
<path class="st2" d="M266,369c-53.6-10.7-103.9-33.9-149-67.2c8.2-6.6,15.7-16.6,21.4-30.7V141.6c-5.8-14.2-13.3-24.1-21.4-30.7
	c45.1-33.3,95.4-56.5,149-67.2c9.7,12.2,17.1,26.4,21.3,41.9v241.5C283.1,342.6,275.8,356.8,266,369z"/>
<path class="st3" d="M138.5,271c61.9,38.8,135.2,61.2,213.7,61.2c115.3,0,219.2-48.4,292.7-126c-73.5-77.6-177.4-126-292.7-126
	c-78.5,0-151.7,22.4-213.7,61.2L138.5,271z"/>
<path class="st4" d="M352.1,145.8c-78.5,0-151.7,10.8-213.7,29.4l0-33.6c61.9-38.8,135.2-61.2,213.7-61.2
	c115.3,0,219.2,48.4,292.7,126C571.4,169.1,467.4,145.8,352.1,145.8z"/>
<g>
	<path class="st1" d="M523.2,294.2c-6.7-27-10.5-56.8-10.5-87.9c0-15.1,0.9-29.8,2.5-44c1.8-15.3,4.4-30,7.9-44
		c45.7,21.5,86.8,51.3,121.2,87.5c0.2,0.2,0.3,0.3,0.5,0.5h0C610.3,242.7,569.1,272.7,523.2,294.2z"/>
</g>
<path class="st2" d="M644.8,206.3L644.8,206.3c-36.5-18.5-80.4-33.5-129.6-44c1.8-15.3,4.4-30,7.9-44
	c45.7,21.5,86.8,51.3,121.2,87.5C644.5,206,644.7,206.1,644.8,206.3z"/>
<circle class="st1" cx="391.7" cy="206.3" r="75.3"/>
<circle class="st5" cx="391.7" cy="206.3" r="50.7"/>
</svg>
