<svg height="512" viewBox="0 0 64 64" width="512" xmlns="http://www.w3.org/2000/svg"><g id="flat"><path d="m5 45h54v4h-54z" fill="#dd3e46"/><path d="m39 45h-14v-19l2-16a10.391 10.391 0 0 1 5-7 10.391 10.391 0 0 1 5 7l2 16z" fill="#91cdf2"/><path d="m25 45h-20v-2.917c0-1.729.271-2.395 3-4.083l17-12z" fill="#91cdf2"/><path d="m32 57h-10a25.393 25.393 0 0 1 3-12h7z" fill="#f9bb4b"/><path d="m24 57h8v4h-8z" fill="#dd3e46"/><path d="m32 57h10a25.393 25.393 0 0 0 -3-12h-7z" fill="#ffd782"/><path d="m32 57h8v4h-8z" fill="#b72735" transform="matrix(-1 0 0 -1 72 118)"/><path d="m25 52h2v2h-2z" fill="#f4f4e6"/><path d="m37 52h2v2h-2z" fill="#f4f4e6"/><path d="m25 37h14v8h-14z" fill="#195c85"/><path d="m25 29h14v8h-14z" fill="#f4f4e6"/><path d="m39 29h-14v-3l.4-3h13.2l.4 3z" fill="#195c85"/><path d="m10 45h-2v-3a1 1 0 0 1 .431-.822l13-9 1.138 1.644-12.569 8.702z" fill="#f4f4e6"/><path d="m39 45h20v-2.917c0-1.729-.271-2.395-3-4.083l-17-12z" fill="#91cdf2"/><path d="m56 45h-2v-2.476l-12.569-8.7 1.138-1.644 13 9a1 1 0 0 1 .431.82z" fill="#f4f4e6"/><path d="m31 32h2v2h-2z" fill="#f9bb4b"/><path d="m31 40h2v2h-2z" fill="#fcf05a"/><path d="m31 23h2v3h-2z" fill="#fcf05a"/><path d="m35 16h-2v-3.764l-1-2-1 2v3.764h-2v-4a1 1 0 0 1 .105-.447l2-4a1.042 1.042 0 0 1 1.79 0l2 4a1 1 0 0 1 .105.447z" fill="#dd3e46"/><g fill="#fcf05a"><path d="m29 18h2v2h-2z"/><path d="m33 18h2v2h-2z"/></g></g></svg>