<svg height="512" viewBox="0 0 64 64" width="512" xmlns="http://www.w3.org/2000/svg"><g id="flat"><path d="m32 9a1 1 0 0 1 -1-1v-5a1 1 0 0 1 2 0v5a1 1 0 0 1 -1 1z" fill="#f9bb4b"/><path d="m24 37h16v16h-16z" fill="#e5e5d6"/><path d="m29 57h6v4h-6z" fill="#f9bb4b"/><path d="m29 53h6v4h-6z" fill="#ffd782"/><path d="m23 57h6v4h-6z" fill="#ffd782" transform="matrix(-1 0 0 -1 52 118)"/><path d="m23 57h6v-4h-5z" fill="#f9bb4b"/><path d="m35 57h6v4h-6z" fill="#ffd782"/><path d="m41 57h-6v-4h5z" fill="#f9bb4b"/><path d="m24 53h-5l5-10z" fill="#195c85"/><path d="m40 53h5l-5-10z" fill="#195c85"/><path d="m40 37h-16l2-4h12z" fill="#dd3e46"/><path d="m26 21h12v12h-12z" fill="#e5e5d6"/><path d="m38 21h-12l2-4h8z" fill="#dd3e46"/><path d="m36 11h-8l4-6z" fill="#dd3e46"/><path d="m28 11h8v6h-8z" fill="#e5e5d6"/><path d="m34 53h-4v-6l2-4 2 4z" fill="#195c85"/><path d="m27 40h2v2h-2z" fill="#32b1cc"/><path d="m35 40h2v2h-2z" fill="#32b1cc"/><g fill="#fcf05a"><path d="m41 12h2v2h-2z"/><path d="m41 16h2v2h-2z"/><path d="m39 14h2v2h-2z"/><path d="m43 14h2v2h-2z"/><path d="m19 23h2v2h-2z"/><path d="m19 27h2v2h-2z"/><path d="m17 25h2v2h-2z"/><path d="m21 25h2v2h-2z"/></g><path d="m35 29h-2v-3h-3v-2h4a1 1 0 0 1 1 1z" fill="#f4f4e6"/></g></svg>