<svg height="512pt" viewBox="0 0 512.01865 512" width="512pt" xmlns="http://www.w3.org/2000/svg"><path d="m107.628906 156.097656 150.332032-150.332031c9.085937-8.03125 22.855468-7.609375 31.429687.964844 8.578125 8.578125 9 22.34375.96875 31.429687l-34.78125 34.695313c-6.605469 6.621093-9.179687 16.265625-6.746094 25.300781 2.429688 9.03125 9.496094 16.082031 18.535157 18.492188 9.039062 2.410156 18.679687-.183594 25.285156-6.804688l34.695312-34.695312c8.953125-8.921876 23.441406-8.921876 32.394532 0 8.828124 8.996093 8.828124 23.402343 0 32.398437l-85.917969 84.320313zm0 0" fill="#f0c419"/><path d="m176.570312 140.296875c-3.570312 0-6.789062-2.152344-8.152343-5.449219-1.367188-3.296875-.613281-7.09375 1.910156-9.621094l35.3125-35.308593c3.464844-3.34375 8.96875-3.296875 12.375.109375 3.40625 3.402344 3.453125 8.910156.105469 12.371094l-35.308594 35.3125c-1.65625 1.65625-3.902344 2.585937-6.242188 2.585937zm0 0" fill="#e57e25"/><path d="m373.601562 252.054688 30.015626-30.015626c9.085937-8.03125 22.855468-7.605468 31.429687.96875 8.574219 8.574219 9 22.34375.96875 31.429688l-34.78125 34.691406c-6.609375 6.625-9.179687 16.269532-6.75 25.300782 2.433594 9.035156 9.5 16.085937 18.539063 18.496093 9.039062 2.410157 18.679687-.183593 25.285156-6.808593l34.691406-34.691407c8.957031-8.921875 23.441406-8.921875 32.398438 0 8.828124 8.996094 8.828124 23.402344 0 32.398438l-149.007813 146.359375-100.371094-104.78125zm0 0" fill="#f0c419"/><path d="m353.121094 387.46875c-3.566406 0-6.785156-2.152344-8.152344-5.449219s-.609375-7.09375 1.914062-9.617187l17.652344-17.65625c3.464844-3.347656 8.972656-3.296875 12.375.105468 3.40625 3.40625 3.453125 8.914063.109375 12.375l-17.65625 17.65625c-1.65625 1.65625-3.898437 2.585938-6.242187 2.585938zm0 0" fill="#e57e25"/><path d="m379.605469 405.125c-3.570313 0-6.789063-2.152344-8.152344-5.449219-1.367187-3.300781-.613281-7.09375 1.910156-9.621093l26.484375-26.480469c3.464844-3.347657 8.96875-3.296875 12.375.105469 3.402344 3.40625 3.453125 8.910156.105469 12.375l-26.480469 26.484374c-1.65625 1.65625-3.902344 2.585938-6.242187 2.585938zm0 0" fill="#e57e25"/><path d="m164.980469 484.617188 200.96875-197.5c11.996093-12.097657 11.996093-31.601563 0-43.695313-12.066407-12.0625-31.621094-12.0625-43.6875 0l-46.785157 46.785156c-13.792968 13.789063-36.148437 13.789063-49.9375 0-13.792968-13.789062-13.792968-36.148437 0-49.9375l46.785157-46.785156c11.980469-12.101563 11.980469-31.59375 0-43.699219-12.078125-12.042968-31.621094-12.042968-43.695313 0l-202.867187 202.867188.0625.0625" fill="#f29c1f"/><path d="m117.160156 261.324219c-2.082031-1.472657-4.03125-3.128907-5.824218-4.945313l-10.152344-10.152344c-13.367188-13.402343-18.582032-32.914062-13.683594-51.199218l3.707031-13.859375c4.902344-18.261719 19.167969-32.527344 37.429688-37.429688l19.597656-5.296875c12.273437-3.308594 25.332031-2.019531 36.722656 3.621094 2.40625 1.085938 4.710938 2.386719 6.886719 3.882812.195312.121094.375.269532.527344.441407 2.9375 1.976562 5.632812 4.285156 8.035156 6.886719l9.710938 10.242187c.785156.835937 1.523437 1.722656 2.207031 2.644531" fill="#7d6599"/><path d="m198.199219 180.285156c2.378906-4.101562 3.625-8.761718 3.617187-13.503906.070313-7.871094-3.398437-15.355469-9.445312-20.394531-.152344-.171875-.332032-.320313-.527344-.441407-2.042969-1.695312-4.375-3.011718-6.886719-3.882812-.40625-.25-.855469-.429688-1.324219-.53125-2.476562-.816406-5.070312-1.234375-7.679687-1.234375-14.625 0-26.484375 11.855469-26.484375 26.484375 0 14.625 11.859375 26.480469 26.484375 26.480469 4.425781-.011719 8.773437-1.164063 12.625-3.355469" fill="#804169"/><path d="m123.605469 202.089844c0 9.75-7.90625 17.65625-17.65625 17.65625s-17.652344-7.90625-17.652344-17.65625 7.902344-17.65625 17.652344-17.65625 17.65625 7.90625 17.65625 17.65625zm0 0" fill="#804169"/><path d="m290.535156 361.25 7.769532-2.117188c18.792968-5.011718 38.820312.683594 52.167968 14.832032l9.710938 10.238281c12.289062 13.003906 17.199218 31.320313 13.066406 48.726563l-3.265625 13.773437c-4.53125 18.917969-19.074219 33.832031-37.871094 38.839844l-19.507812 5.210937c-18.285157 4.941406-37.820313-.28125-51.203125-13.683594l-10.148438-10.152343c-13.367187-13.402344-18.582031-32.914063-13.683594-51.199219l.882813-3.265625" fill="#7d6599"/><path d="m351.929688 389.835938c0 14.449218-11.714844 26.164062-26.164063 26.164062s-26.164063-11.714844-26.164063-26.164062c0-14.449219 11.714844-26.164063 26.164063-26.164063s26.164063 11.714844 26.164063 26.164063zm0 0" fill="#804169"/><path d="m282.503906 449.261719c0 9.75-7.90625 17.65625-17.65625 17.65625s-17.65625-7.90625-17.65625-17.65625 7.90625-17.652344 17.65625-17.652344 17.65625 7.902344 17.65625 17.652344zm0 0" fill="#894b9d"/><g fill="#d25627"><path d="m141.261719 343.332031c-3.570313 0-6.789063-2.152343-8.15625-5.449219-1.363281-3.300781-.609375-7.09375 1.914062-9.621093l35.308594-35.308594c3.464844-3.347656 8.972656-3.296875 12.375.105469 3.40625 3.40625 3.453125 8.914062.109375 12.375l-35.3125 35.3125c-1.652344 1.65625-3.898438 2.585937-6.238281 2.585937zm0 0"/><path d="m185.398438 387.46875c-3.570313 0-6.789063-2.152344-8.152344-5.449219-1.367188-3.296875-.613282-7.09375 1.910156-9.617187l44.140625-44.140625c3.460937-3.34375 8.96875-3.296875 12.375.109375 3.402344 3.40625 3.453125 8.910156.105469 12.375l-44.136719 44.136718c-1.65625 1.65625-3.902344 2.585938-6.242187 2.585938zm0 0"/><path d="m167.742188 360.988281c-3.570313-.003906-6.785157-2.152343-8.152344-5.449219-1.367188-3.300781-.613282-7.097656 1.914062-9.621093l17.652344-17.65625c3.464844-3.34375 8.972656-3.296875 12.375.109375 3.40625 3.40625 3.453125 8.910156.109375 12.375l-17.65625 17.652344c-1.65625 1.65625-3.898437 2.585937-6.242187 2.589843zm0 0"/></g><path d="m190.785156 414.570312c-22.957031 1.796876-40.675781 20.9375-40.695312 43.960938-.015625 10.707031 3.914062 21.046875 11.03125 29.042969v.089843c-5.453125 4.128907-11.660156 7.160157-18.269532 8.914063l-47.316406 12.710937c-18.300781 4.867188-37.8125-.378906-51.203125-13.769531l-28.777343-28.777343c-13.390626-13.390626-18.636719-32.898438-13.769532-51.199219l10.59375-39.371094c4.898438-18.265625 19.164063-32.53125 37.429688-37.429687l47.402344-12.710938c18.777343-5.023438 38.796874.632812 52.171874 14.742188l27.542969 29.21875c11.269531 11.910156 16.390625 28.375 13.859375 44.578124zm0 0" fill="#7d6599"/><path d="m158.914062 370.273438c0 19.5-15.808593 35.308593-35.308593 35.308593s-35.308594-15.808593-35.308594-35.308593 15.808594-35.308594 35.308594-35.308594 35.308593 15.808594 35.308593 35.308594zm0 0" fill="#804169"/><path d="m114.777344 449.722656c0 9.75-7.902344 17.652344-17.65625 17.652344-9.75 0-17.652344-7.902344-17.652344-17.652344s7.902344-17.65625 17.652344-17.65625c9.753906 0 17.65625 7.90625 17.65625 17.65625zm0 0" fill="#894b9d"/><path d="m44.15625 405.582031c0 9.753907-7.902344 17.65625-17.652344 17.65625-9.753906 0-17.65625-7.902343-17.65625-17.65625 0-9.75 7.902344-17.652343 17.65625-17.652343 9.75 0 17.652344 7.902343 17.652344 17.652343zm0 0" fill="#804169"/><path d="m190.785156 414.570312-.089844.089844c-.148437 1.335938-.386718 2.664063-.707031 3.972656l-9.269531 39.015626c-2.851562 11.953124-9.78125 22.535156-19.597656 29.925781-7.117188-7.996094-11.046875-18.335938-11.03125-29.042969.019531-23.023438 17.738281-42.164062 40.695312-43.960938zm0 0" fill="#804169"/></svg>