<svg height="512" viewBox="0 0 64 64" width="512" xmlns="http://www.w3.org/2000/svg"><g id="flat"><path d="m3 6h58v46h-58z" fill="#4f83d1"/><path d="m3 52h6v6h-6z" fill="#195c85"/><path d="m55 52h6v6h-6z" fill="#195c85"/><path d="m17 10h30v4h-30z" fill="#fcf05a"/><rect fill="#f4f4e6" height="20" rx="2" width="23" x="7" y="18"/><path d="m25 31 3-5c-2-2-4-4-9-4v6c2.485 0 4.371 1.371 6 3z" fill="#dd3e46"/><path d="m13 31c1.629-1.629 3.515-3 6-3v-6a13.33 13.33 0 0 0 -10 4z" fill="#f9bb4b"/><path d="m19 35a1 1 0 0 1 -.833-.445l-8-12a1 1 0 1 1 1.664-1.11l8 12a1 1 0 0 1 -.831 1.555z" fill="#32b1cc"/><rect fill="#f4f4e6" height="20" rx="2" width="23" x="34" y="18"/><path d="m52 31 3-5c-2-2-4-4-9-4v6c2.485 0 4.371 1.371 6 3z" fill="#dd3e46"/><path d="m40 31c1.629-1.629 3.515-3 6-3v-6a13.33 13.33 0 0 0 -10 4z" fill="#f9bb4b"/><g fill="#50b4f8"><path d="m58 15h-2v-4h-4v-2h6z"/><path d="m8 15h-2v-6h4v2h-2z"/><path d="m12 9h2v2h-2z"/></g><path d="m35 45a3 3 0 0 1 -6 0 2.947 2.947 0 0 1 .3-1.29 2.99 2.99 0 0 1 1.41-1.42 3.086 3.086 0 0 1 1.29-.29 3 3 0 0 1 3 3z" fill="#f9bb4b"/><path d="m32.71 44.29-1.42 1.42-1.99-2a2.99 2.99 0 0 1 1.41-1.42z" fill="#e97424"/><path d="m45 45a3 3 0 1 1 -4-2.82 2.868 2.868 0 0 1 2 0 2.968 2.968 0 0 1 2 2.82z" fill="#f9bb4b"/><path d="m43 42.18v2.82h-2v-2.82a2.868 2.868 0 0 1 2 0z" fill="#e97424"/><path d="m25 45a3 3 0 1 1 -4-2.82 2.868 2.868 0 0 1 2 0 2.968 2.968 0 0 1 2 2.82z" fill="#f9bb4b"/><path d="m23 42.18v2.82h-2v-2.82a2.868 2.868 0 0 1 2 0z" fill="#e97424"/><path d="m15 45a3 3 0 0 1 -5.82 1 2.868 2.868 0 0 1 0-2 3 3 0 0 1 5.82 1z" fill="#f9bb4b"/><path d="m12 44v2h-2.82a2.868 2.868 0 0 1 0-2z" fill="#e97424"/><path d="m55 45a2.772 2.772 0 0 1 -.18 1 3 3 0 1 1 0-2 2.772 2.772 0 0 1 .18 1z" fill="#f9bb4b"/><path d="m55 45a2.772 2.772 0 0 1 -.18 1h-2.82v-2h2.82a2.772 2.772 0 0 1 .18 1z" fill="#e97424"/><path d="m19 33a5 5 0 0 0 -5 5h10a5 5 0 0 0 -5-5z" fill="#e97424"/><path d="m46 35a1 1 0 0 1 -.894-1.447l6-12a1 1 0 0 1 1.79.894l-6 12a1 1 0 0 1 -.896.553z" fill="#32b1cc"/><path d="m46 33a5 5 0 0 0 -5 5h10a5 5 0 0 0 -5-5z" fill="#e97424"/></g></svg>