<svg xmlns="http://www.w3.org/2000/svg" width="38.456" height="36.715" viewBox="0 0 38.456 36.715">
  <g id="_018---Astronaut" data-name="018---Astronaut" transform="translate(5.328 -4.992) rotate(11)">
    <path id="Shape" d="M4.783,0C8.1,2.445,10.58,5.961,8,9.062c-2.275,2.722-5.344,2.521-8,.233L1.456,7.209A4.474,4.474,0,0,0,4.146,8.526a2.521,2.521,0,0,0,1.89-1.078,1.739,1.739,0,0,0,.447-1.5c-.2-1.254-1.972-3.012-3.233-4Z" transform="translate(23.742 20.254)" fill="#2c3e50"/>
    <path id="Shape-2" data-name="Shape" d="M12.425,5.525a7.581,7.581,0,0,0-7.171.863l-.668.4A1.89,1.89,0,0,1,1.92,6.017L.13,2.45A1.26,1.26,0,0,1,.8.717C3.64-.329,4.623,2.608,4.623,2.608A10.082,10.082,0,0,1,13.836.3l.555,4.827Z" transform="translate(0 20.86)" fill="#e57e25"/>
    <path id="Shape-3" data-name="Shape" d="M0,16.687l1.43.718A1.89,1.89,0,0,0,4,16.5L9.9,3.655a1.89,1.89,0,0,0-.97-2.521L6.3,0Z" transform="translate(20.692 12.125)" fill="#35495e"/>
    <path id="Shape-4" data-name="Shape" d="M10.066,3.7l-4.638.983L3.538.963A1.89,1.89,0,0,0,.16,2.652L2.681,7.693A1.89,1.89,0,0,0,4.395,8.739a10.083,10.083,0,0,0,1.941-.384Z" transform="translate(8.735 9.688)" fill="#e57e25"/>
    <path id="Shape-5" data-name="Shape" d="M21.512.712c.076.05-.208-.183,1.89,1.544a1.84,1.84,0,0,0,1.569.4A24.589,24.589,0,0,0,28.3,1.178a1.89,1.89,0,0,1,1.815,3.315L27.3,5.785A5.671,5.671,0,0,1,21,5.192a11.669,11.669,0,0,0-3.151,5.835c-.365,2.565-1.588,3.636-2.521,4.083a3.308,3.308,0,0,1-1.26.328s-5.356,0-6.932,4.411l-.309.718a1.89,1.89,0,0,1-2.621.92L.673,19.6A1.26,1.26,0,0,1,.2,17.8c1.72-2.716,4.411-.473,4.411-.473a7.371,7.371,0,0,1,3.107-5.186C7.617,8.116,9.9,3.365,12.129,0Z" transform="translate(5.369 13.701)" fill="#f29c1f"/>
    <path id="Shape-6" data-name="Shape" d="M13.863,6.932A6.932,6.932,0,1,1,6.932,0,6.932,6.932,0,0,1,13.863,6.932Z" transform="translate(15.651 2.043)" fill="#e57e25"/>
    <path id="Shape-7" data-name="Shape" d="M13.8,6.272a6.932,6.932,0,0,1-13.8,0,6.932,6.932,0,0,1,13.8,0Z" transform="translate(15.714 2.073)" fill="#f29c1f"/>
    <path id="Shape-8" data-name="Shape" d="M10.712,4.419c0,3.749-5.968,5.785-9.837,3.371a6.932,6.932,0,0,1,0-6.743C4.694-1.359,10.712.638,10.712,4.419Z" transform="translate(15.652 4.555)" fill="#35495e"/>
    <path id="Shape-9" data-name="Shape" d="M.63,3.781A.63.63,0,0,1,0,3.151C0,.63,2.47,0,3.781,0a.63.63,0,0,1,0,1.26c-.113,0-2.521.038-2.521,1.89A.63.63,0,0,1,.63,3.781Z" transform="translate(16.911 5.824)" fill="#547580"/>
    <path id="Shape-10" data-name="Shape" d="M10.618,2.155C10.618,5.9,4.651,7.94.781,5.526A6.787,6.787,0,0,1,0,3.315C2.319,4.31,6.3,4.9,9.856,0A3.541,3.541,0,0,1,10.618,2.155Z" transform="translate(15.745 6.82)" fill="#2c3e50"/>
    <path id="Shape-11" data-name="Shape" d="M6.148,5.393c-.46.233-.555.3-1.563.907A1.89,1.89,0,0,1,1.92,5.525L.13,1.958A1.26,1.26,0,0,1,.8.225C3.64-.821,4.623,2.116,4.623,2.116Z" transform="translate(0 21.353)" fill="#2c3e50"/>
    <path id="Shape-12" data-name="Shape" d="M7.512,2.528c-.221.391-.221.479-.693,1.563a1.89,1.89,0,0,1-2.621.92L.668,3.12A1.26,1.26,0,0,1,.189,1.343C1.91-1.373,4.6.87,4.6.87Z" transform="translate(5.379 30.16)" fill="#35495e"/>
  </g>
</svg>
