<svg id="圖層_1" data-name="圖層 1" xmlns="http://www.w3.org/2000/svg" viewBox="0 0 555 185"><defs><style>.cls-1{fill:none;stroke:#ce93d7;stroke-miterlimit:10;stroke-width:5px;}</style></defs><path class="cls-1" d="M998.5,365.5V303a25,25,0,0,0-25-25H909" transform="translate(-446 -275.5)"/><line class="cls-1" x1="445" y1="182.5" x2="261" y2="182.5"/><path class="cls-1" d="M998.5,375.5V433a25,25,0,0,1-25,25H901" transform="translate(-446 -275.5)"/><line class="cls-1" x1="352.5" y1="2.5" x2="418" y2="2.5"/><line class="cls-1" x1="91" y1="182.5" x2="145" y2="182.5"/><line class="cls-1" x1="241" y1="182.5" x2="155" y2="182.5"/><path class="cls-1" d="M448.5,339v94a25,25,0,0,0,25,25H527" transform="translate(-446 -275.5)"/><path class="cls-1" d="M448.5,329V303a25,25,0,0,1,25-25h175" transform="translate(-446 -275.5)"/></svg>