<?xml version="1.0" encoding="utf-8"?>
<!-- Generator: Adobe Illustrator 25.2.3, SVG Export Plug-In . SVG Version: 6.00 Build 0)  -->
<svg version="1.1" id="圖層_1" xmlns="http://www.w3.org/2000/svg" xmlns:xlink="http://www.w3.org/1999/xlink" x="0px" y="0px"
	 viewBox="0 0 31 25" style="enable-background:new 0 0 31 25;" xml:space="preserve">
<style type="text/css">
	.st0{fill:#FFFFFF;}
</style>
<g id="圖層_2_1_">
	<g id="Layer_1">
		<path class="st0" d="M22.8,25c-1.7,0-3.1-1.4-3.1-3.1c0,0,0,0,0,0c0-1.7,1.4-3.1,3.1-3.1c1.7,0,3.1,1.4,3.1,3.1
			C25.9,23.7,24.5,25,22.8,25C22.8,25,22.8,25,22.8,25z M21.4,21.9c0,0.7,0.5,1.2,1.2,1.3c0.7,0,1.3-0.5,1.3-1.2
			c0-0.7-0.5-1.3-1.2-1.3C22.1,20.6,21.5,21.2,21.4,21.9z"/>
		<path class="st0" d="M14.9,25c-1.7,0-3.1-1.4-3.1-3.1c0,0,0,0,0,0c0-1.7,1.4-3.1,3.1-3.1c1.7,0,3.1,1.4,3.1,3.1
			C18,23.7,16.6,25,14.9,25C14.9,25,14.9,25,14.9,25z M13.6,21.9c0,0.7,0.5,1.2,1.2,1.3c0.7,0,1.3-0.5,1.3-1.2s-0.5-1.3-1.2-1.3
			C14.2,20.6,13.6,21.2,13.6,21.9z"/>
		<path class="st0" d="M10.4,16.4L5.6,1.8H0.9C0.4,1.8,0,1.4,0,0.9c0,0,0,0,0,0C0,0.4,0.4,0,0.9,0l5.4,0C6.6,0,7,0.3,7.1,0.6
			l4.8,14.6h13.8l3.2-8.8H12c-0.4,0-0.8-0.4-0.8-0.8c-0.1-0.5,0.3-1,0.8-1h18.1c0.3,0,0.6,0.1,0.7,0.4C31,5.3,31,5.6,30.9,5.8
			L27,16.4c-0.1,0.3-0.4,0.5-0.8,0.6h-15C10.9,17,10.5,16.8,10.4,16.4z"/>
	</g>
</g>
</svg>
