<svg id="Capa_1" enable-background="new 0 0 512 512" height="512" viewBox="0 0 512 512" width="512" xmlns="http://www.w3.org/2000/svg"><g><path d="m512 256.027c0 48.956-13.742 94.702-37.579 133.592l-256.889 119.537c-61.907-9.33-116.55-40.828-155.585-86.151l-12.947-62.505-40.825-40.046c-5.336-20.584-8.175-42.174-8.175-64.427 0-113.915 74.404-210.452 177.267-243.665l78.733 12.638 101.125-4.224c8.918 3.839 17.574 8.17 25.935 12.959 5.315 3.045 25.94 2.015 25.94 2.015s-2.221 13.312 1.718 16.304c61.543 46.754 101.282 120.723 101.282 203.973z" fill="#ffed6a"/><path d="m416.549 416.549 57.873-26.93c23.836-38.89 37.578-84.636 37.578-133.592 0-83.25-39.739-157.22-101.282-203.974-3.939-2.991-1.718-16.303-1.718-16.303s-20.625 1.03-25.94-2.015c-8.36-4.789-17.017-9.12-25.935-12.959l-101.125 4.224-78.733-12.638c-39.023 12.601-73.943 34.32-102.266 62.64z" fill="#ffb454"/><path d="m217.54 509.101c12.711 1.917 25.636 2.899 38.46 2.899 44.595 0 88.51-11.647 126.998-33.68 37.313-21.36 68.919-52.037 91.401-88.714-189.807 32.122-245.874 102.531-256.859 119.495z" fill="#ffb454"/><path d="m474.399 389.606c-25.673 4.345-48.88 9.396-69.879 14.913l32.462 32.462c14.244-14.243 26.849-30.135 37.417-47.375z" fill="#ff8659"/><path d="m256 0c-26.849 0-53.339 4.158-78.736 12.359h-.001c-.003.016-31.526 195.082-169.058 308.088 5.668 21.842 14.311 42.93 25.558 62.569 2.776 4.848 3.986 22.233 3.986 22.233s11.141 1.259 14.529 5.713c3.115 4.095 6.355 8.098 9.715 12 161.488-164.91 77.087-306.71 295.138-402.192-32.018-13.782-66.043-20.77-101.131-20.77z" fill="#ffb454"/><path d="m357.131 20.77c-32.018-13.782-66.043-20.77-101.131-20.77-26.849 0-53.339 4.158-78.736 12.359h-.001c-.001.008-9.109 56.355-38.882 126.022l52.076 52.075c26.057-65.751 60.53-123.208 166.674-169.686z" fill="#ff8659"/><path d="m501.201 10.8c-11.561-11.561-29.916-13.83-54.556-6.742-17.785 5.115-39.153 15.104-63.59 29.695 9.727 5.573 19.057 11.759 27.929 18.52 46.548-25.755 65.485-23.78 69.005-20.26 3.985 3.985 6 27.745-32.03 89.013-33.351 53.729-85.793 117.395-147.665 179.268-61.872 61.87-125.537 114.311-179.266 147.662-61.267 38.03-85.028 36.015-89.012 32.03-3.518-3.518-5.497-22.461 20.272-69.028-6.777-8.908-12.953-18.256-18.505-27.953-14.617 24.476-24.619 45.873-29.733 63.677-7.073 24.62-4.801 42.963 6.753 54.518 7.177 7.177 16.97 10.772 29.262 10.771 7.508 0 15.951-1.342 25.295-4.029 19.679-5.66 43.731-17.266 71.49-34.496 55.626-34.529 121.206-88.488 184.657-151.939 63.452-63.451 117.412-129.031 151.941-184.658 17.23-27.759 28.836-51.811 34.496-71.49 7.086-24.643 4.818-42.999-6.743-54.559z" fill="#5e54ac"/><path d="m300.293 300.293 21.212 21.213v-.001c63.452-63.451 117.412-129.031 151.941-184.658 17.23-27.759 28.836-51.811 34.496-71.49 7.087-24.641 4.818-42.996-6.742-54.557-11.56-11.561-29.915-13.83-54.555-6.742-17.785 5.115-39.153 15.104-63.59 29.695 9.727 5.573 19.057 11.759 27.929 18.52 46.548-25.755 65.485-23.78 69.005-20.26 3.985 3.985 6 27.745-32.03 89.013-33.352 53.729-85.794 117.394-147.666 179.267z" fill="#453d81"/><circle cx="360.212" cy="256" fill="#ff3c7d" r="58"/></g></svg>