<svg id="圖層_1" data-name="圖層 1" xmlns="http://www.w3.org/2000/svg" viewBox="0 0 245.91 69.64"><defs><style>.cls-1,.cls-5{fill:#ce93d8;}.cls-2{fill:#1a237e;}.cls-3,.cls-6{fill:#fff;}.cls-4{font-size:18px;fill:#ffea00;font-family:NotoSansMonoCJKtc-Bold-B5pc-H, Noto Sans Mono CJK TC;letter-spacing:0.2em;}.cls-5{letter-spacing:0.2em;}.cls-6{font-size:26px;font-family:NotoSansMonoCJKtc-Regular-B5pc-H, Noto Sans Mono CJK TC;letter-spacing:-0.05em;}</style></defs><g id="astronaut-helmet"><path class="cls-1" d="M439.67,374.38a19,19,0,0,1-5.24-.78,22.85,22.85,0,0,1-9-5.24,22,22,0,0,1-4.71-7.34c0-.26,0-.78,2.62-3.79l.26-.27v-.26c-.13-.78-.26-2-.4-3a10.83,10.83,0,0,1-.13-1.84v-.39l-.26-.13c-1.57-1.05-1.57-1.57-1.57-1.83,0-.66,1.05-5.9,1.7-6.55a1.62,1.62,0,0,1,1.18-.4h.39l.27-.39c.91-1.7,3.4-5.76,7.86-7.33a22.35,22.35,0,0,1,7.46-1.58,18.9,18.9,0,0,1,5.76.92c.79.26,1.58.53,2.49.79,6,2.09,8,6.42,9.17,8.64.13.26.26.53.4.79.91,1.83.78,5.76.65,7.33V352l.26.26.13.13.79,1.05,1.83-7.6-.26-.26a3.12,3.12,0,0,1-.92-2.75,3.21,3.21,0,0,1,1.44-2,2.69,2.69,0,0,1,1.45-.39,2.54,2.54,0,0,1,.91.13,4.53,4.53,0,0,1,1.18.52,2.6,2.6,0,0,1,1.05,1.58,5.89,5.89,0,0,1-1.05,3.14l-.13.13v.13c-1.44,7.86-2.23,11.79-2.36,12.18a1.57,1.57,0,0,1-1.57.79h-.13a.48.48,0,0,1-.39-.13c-.4-.13-.92-.26-1.58-.53l-.65-.26-.26.66c-.26.91-.53,1.18-.66,1.18a2,2,0,0,1-1.31.39h-.39l-.13.39a7.67,7.67,0,0,1-.92,1.84,12.37,12.37,0,0,1-.91,1.31l-.27.26v.26c.4,4.85.4,5.37.27,5.63-.4,1.05-7.34,3.8-12.71,4.19A8.26,8.26,0,0,1,439.67,374.38Z" transform="translate(-420.68 -331.56)"/><path class="cls-2" d="M439.67,372.94a19.68,19.68,0,0,1-13.23-5.63,23.2,23.2,0,0,1-4.32-6.42,41.21,41.21,0,0,1,2.62-3.4l.26-.26V357s-.39-2.09-.53-3.53-.13-2.49-.13-2.49v-.4l-.26-.13h.13c.26-.13.53-.52.79-1.31-.39,1.18-.66,2.23-.66,2.23,0,.39.4,5.24,2.23,8.38a15.58,15.58,0,0,0,8.78,6.68,20.4,20.4,0,0,0,5.37.66,8.22,8.22,0,0,0,2.22-.13l.26-.13.4-.13a14.8,14.8,0,0,0,3.14-.79,12.53,12.53,0,0,0,4.45-3.27,15.7,15.7,0,0,0,2.49-3.28l.13-.26-.13-.26c0-.13-.26-.53-.26-.79a50.68,50.68,0,0,1,1.31-5v-.26c0-.52-.65-1.44-1.7-2.75l-.26-.39c-1.44-1.84-3.54-4.46-6.42-5.77a22.93,22.93,0,0,0-9-2.22,12.12,12.12,0,0,0-2.23.13,33.69,33.69,0,0,0-6.68,2.09,25,25,0,0,1,7.6-2.35,16,16,0,0,1,2.49-.13c3.41,0,6,1.17,9.3,2.75,3.67,1.7,6.68,7.2,6.68,7.33l.13.39h1.18l.26-.13.13-.26c.26-.52.13-6.55-2.22-10.08a12.6,12.6,0,0,0-3.41-3.54,14,14,0,0,1,5.11,6.29l.39.78c.79,1.57.66,5.77.39,7.21v.39c-.26-.13-.39-.26-.65-.26h-.13l-.13.13c-.53.26-1.71,5.76-1.71,5.76.27.66,1.18.66,1.31.66s.4,0,.53-.13c.65-.4,1.7-5.11,1.7-5.11a1.45,1.45,0,0,0-.13-.66c.26.13.39.4.26.4l-.52,2.09.26.13c-.13.26-.26.53-.13.66l-.26-.13-.13.78a11.2,11.2,0,0,1-.66,2h0a1.89,1.89,0,0,1-.78.13h-1.05l-.13.52a15,15,0,0,1-1.05,2.49,4.67,4.67,0,0,1-1,1.31l-.39.26v.4c.26,2.22.39,4.84.39,5.63a31.33,31.33,0,0,1-6.94,2.62c.13,0,.13-.13.26-.13s.13-.13.13-.27l1.31-.52.13-.13H447a2.53,2.53,0,0,0,1.18-.39l.53-.27h0a5.2,5.2,0,0,0,1.31-.39v.13l.65-.26.79-.39c.26-.26.26-.26,0-4.46l-.13-.78-.79.26a9,9,0,0,0-1.57.65l-.26.14a18.09,18.09,0,0,1-5.77,1.83,16.94,16.94,0,0,1-3.27.39,17.23,17.23,0,0,1-5.5-1.18,14.25,14.25,0,0,1-5.5-3.27l-.14-.26h-.13l-.52-.53-.13-.39c-.13-.26-.39-.65-.79-.65h0a3.45,3.45,0,0,1-.52-.79,3.1,3.1,0,0,1-.66-1.31,4.36,4.36,0,0,0-.52-.92l-.13-.26h-.26c-.66,0-2.49,2.49-2.49,2.88a7.21,7.21,0,0,0,1.83,2.75v.4a1.53,1.53,0,0,0,.79.78c-.13.39.26.79.39.92s.26.13.39.26c.13.79,1.71,2.1,3,3a22.94,22.94,0,0,0,9.3,3.41,30.06,30.06,0,0,0,3.27.26h1.05a7.54,7.54,0,0,1-1.7.13A2.94,2.94,0,0,1,439.67,372.94Zm-6.55-16.5Zm-.66-.13c-.13,0-.39-.13-.52-.13.13-.13.26-.26.26-.4h0C432.33,356.05,432.46,356.18,432.46,356.31Zm-9.56-6.81c-.13-.13-.26-.13-.26-.27a40.74,40.74,0,0,1,1.31-5.37h.13c.26,0,.53,0,.66.14l.65.13.13-.27V344a.13.13,0,0,0,.13.13c-.26-.13-.52-.13-.91-.27h-.27l-.13.14C423.43,344.52,422.9,348.58,422.9,349.5Zm39.82-.53a.64.64,0,0,0-.39-.13h-.26c.26-1.31.91-3.53.91-3.53h.53A29.18,29.18,0,0,0,462.72,349Zm-36.67-2.22a13.8,13.8,0,0,0,.39-1.44c0-.27,0-.4-.13-.53a8.28,8.28,0,0,0,.91.26h.14a2,2,0,0,1-.79.4C426.44,345.44,426.31,346,426.05,346.75Zm9.43-.53v-.13h0v.13ZM427,341.11a13,13,0,0,1,6-5,19.22,19.22,0,0,1,6.94-1.44,24.41,24.41,0,0,1,7.6,1.57h-.13l-.4-.13a3.83,3.83,0,0,0-1.31-.4v-.13l-.65-.13h-.66c-.13-.13-.39-.26-2-.65h-.26l-.27.13c-.13-.13-.52-.4-1.83-.4h-.26a.45.45,0,0,0-.26.14H439a4.58,4.58,0,0,0-1.18.13h-.91a13.6,13.6,0,0,0-6.42,2.62A31.61,31.61,0,0,0,427,341.11Z" transform="translate(-420.68 -331.56)"/><path class="cls-3" d="M439.93,334a19.31,19.31,0,0,0-7.2,1.57c-5.37,2-7.86,7.86-7.86,7.86a7.58,7.58,0,0,0-.92-.13,1,1,0,0,0-.65.13c-.4.39-1.45,5.37-1.45,5.9s2,1.57,2,1.57,0,1.05.13,2.49.52,3.53.52,3.53-2.88,3.28-2.88,3.8,1.57,3.93,4.46,6.94a20.24,20.24,0,0,0,13.62,5.77h1.05a30,30,0,0,0,12-3.67c.13-.26-.4-6-.4-6a4.11,4.11,0,0,0,1.31-1.57,12.77,12.77,0,0,0,1.18-2.62h.53a2.19,2.19,0,0,0,1.31-.26,9.37,9.37,0,0,0,.91-2.36,28.86,28.86,0,0,0,3.15,1.05h.13a1,1,0,0,0,.91-.39c.27-.39,2.36-12.31,2.36-12.31s2.23-2.62.53-3.8a2.5,2.5,0,0,0-1.58-.53,2.24,2.24,0,0,0-2.09,1.71c-.39,1.44,1.31,2.48,1.31,2.48s-2.49,10.09-2.49,10.22h0a17.25,17.25,0,0,1-1.7-.39s.26-.92.39-1.57-.92-1.31-.92-1.31.53-5.5-.52-7.6-2.75-6.68-9-9a31.08,31.08,0,0,0-8.12-1.44Zm-.65,3.8h0c.26-.13.65-2.36.78-2.49h.13c.4,0,1.44.13,1.44.13a29.25,29.25,0,0,0-.65,3.28,5.75,5.75,0,0,0,1.7.65c.26,0,.66.13.92.13s.65,0,.65-.13a24.24,24.24,0,0,1,.66-3.27h.39s-.65,2.88-.39,2.88a21.49,21.49,0,0,0,2.36.39c.13,0,.26,0,.26-.13a13.33,13.33,0,0,1,.52-2.62h0a14.34,14.34,0,0,1,6,4.85c2.22,3.4,2.35,9.56,2.22,9.56h-.65s-3-5.76-6.94-7.6c-3.28-1.57-6-2.75-9.57-2.75a15.86,15.86,0,0,0-2.48.13,31.31,31.31,0,0,0-9,3s-1.18-.26-1.18-.39a15.91,15.91,0,0,1,4.85-5.63,13.79,13.79,0,0,1,6.15-2.49s-.26,1.31-.13,1.44c-.39.53,1.44,1,2,1Zm-.53-.92a4.16,4.16,0,0,1-.92-.26l.14-1.05c.13,0,1.17-.13,1.17-.13s-.26,1.44-.39,1.44Zm4.45,2a5.68,5.68,0,0,1-1.44-.26,10.29,10.29,0,0,1,.53-2.89s1.7.27,1.57.4a19.61,19.61,0,0,1-.66,2.75Zm3.28-.26c-.13,0-1.05-.14-1.05-.14l.26-2c.13,0,1.18.39,1.18.39a8.11,8.11,0,0,1-.39,1.71Zm16.63,6a1.85,1.85,0,0,1-.78-.26,1.3,1.3,0,0,1,.78-2.23h.14c.78,0,1,.79.91,1.57a.93.93,0,0,1-1.05.92ZM441,366.52a18.36,18.36,0,0,1-5.11-.65,15.39,15.39,0,0,1-8.38-6.42,17.93,17.93,0,0,1-2.1-8c0-.26,1.7-5.63,1.7-5.76a32.46,32.46,0,0,1,8.52-3.15,12,12,0,0,1,2.22-.13,22.73,22.73,0,0,1,8.78,2.1c2.88,1.31,5,4.06,6.42,5.89a9.31,9.31,0,0,1,1.57,2.36s-1.31,4.72-1.31,5.24a6.18,6.18,0,0,0,.39,1.05,15.12,15.12,0,0,1-2.35,3.14,14.14,14.14,0,0,1-4.2,3.15,16.38,16.38,0,0,1-3,.78,17.71,17.71,0,0,0-1.83-2.88h-.13c-.26,0-.66.26-.66.39s2,2.62,1.7,2.75a8.17,8.17,0,0,1-2.22.13Zm-16.77-16.63c-.26,0-.78-.26-.78-.39s.78-4.72,1-4.85c0,0,1.31.26,1.18.52a28.09,28.09,0,0,1-1.44,4.72Zm36,6.55h.13c.13-.26,1.58-6.81,1.84-6.94h.13c.13,0,.13.26.13.39s-1.31,7.2-1.57,7.34h-.13a10,10,0,0,1-2.75-.79c-.13-.13.13-.52.13-.52a16.15,16.15,0,0,0,2.09.52Zm-4.84,1.83a2.65,2.65,0,0,1-.66-.13c0-.13,1.44-5,1.44-5.11h0c.13,0,.79.4.79.53a38.49,38.49,0,0,1-1.31,4.58c-.13.13-.13.13-.26.13Zm-30.65,5h0a8.32,8.32,0,0,1-1.58-2.23A10.46,10.46,0,0,1,425,358.8h0c.13.13.78,1.44,1.18,2.09a5.05,5.05,0,0,0,.65.92,14.53,14.53,0,0,1-2.09,1.44Zm.65,1.05h0c-.13,0-.52-.26-.39-.26s2-2.1,2.09-2.1h0c.13,0,.4.26.27.26a15.07,15.07,0,0,1-2,2.1Zm.66,1.05h0c-.14-.13-.4-.27-.27-.4s2-2.22,2-2.22l.26.26a17.17,17.17,0,0,1-2,2.36Zm15.32,6.81a30.5,30.5,0,0,1-3.14-.26,24.37,24.37,0,0,1-9-3.28c-2.1-1.44-2.75-2.49-2.75-2.62a11.81,11.81,0,0,1,2-2.49h0a14.47,14.47,0,0,0,5.77,3.54c2.49.78,3.93,1.31,5.63,1.31a19.37,19.37,0,0,0,3.4-.39,17.64,17.64,0,0,0,6.16-2.1,6.57,6.57,0,0,1,1.44-.65s.26,3.79.26,3.92a1.7,1.7,0,0,1-.52.27s-.52-2.75-.79-2.75h0a2.84,2.84,0,0,0-.65.39s.79,2.36.52,2.49a5.11,5.11,0,0,1-.78.26,18.13,18.13,0,0,0-.53-2.23h-.13c-.26,0-.65.13-.65.4s.65,2.35.65,2.35a3.92,3.92,0,0,1-.91.27h0c-.14-.14-.53-2-.66-2.1h0a3.34,3.34,0,0,0-.65.26,9.93,9.93,0,0,1,.65,2.1,2.74,2.74,0,0,1-.79.26l-.65-2s-.52,0-.66.14a15.28,15.28,0,0,1,.53,2.35,10.65,10.65,0,0,1-3.67.53Zm-7.47-26.85c-3.66,0-5,3.14-5.37,4.06s-1.17,3.93.27,5.76a6.26,6.26,0,0,0,4.32,2.1h0c.13,0,.26,0,.26-.4s-.26-.39-.65-1.18a6.63,6.63,0,0,1-.4-4.32c.4-2.09,2.88-3.8,3.41-4.32s.39-1.31,0-1.44a4.52,4.52,0,0,0-1.84-.26Zm-2.35,10.34a3.88,3.88,0,0,1-2.49-2.62c-.53-1.83.92-4.45,1.83-5.37A4.47,4.47,0,0,1,434,346h.52c.39,0,.52.39.26.52s-2.88,1.71-3.4,4.2-.27,3.66,0,4.19.26.65.13.78ZM442,346.09c-.27,0-.66,1.05-.66,1.05a2.62,2.62,0,0,0-.78-.26h0c-.14,0-.27.26-.27.39s.66.52.79.66-.79.78-.79.78.13.52.27.52h0a2.2,2.2,0,0,0,.78-.39h0c.13,0,.26.66.26.66h.53a4.33,4.33,0,0,1,0-1.31h.13a4.51,4.51,0,0,1,1,.39l.26-.26c0-.13-.26-.39-.26-.39a2,2,0,0,0,.26-.53h-.26a4.63,4.63,0,0,0-.92.13,3.31,3.31,0,0,1,.26-.91c-.26-.4-.39-.53-.65-.53Zm8.38,2.75h0a.39.39,0,0,0-.26.53,5.71,5.71,0,0,0,1.18,1.31h0c.13,0,.13-.14.26-.27a5,5,0,0,0-1.18-1.57ZM445.82,352c-.13,0-.52,0-.65.13l-.13.52h-.26l-.13.26.52.4s0,.78.13.78a.57.57,0,0,1,.39.13l.13-.78a2.33,2.33,0,0,1,.79.13h0c.26,0,.13-.26.13-.4s-.65-.26-.92-.26,0-.52,0-.65c.27-.26.14-.26,0-.26Zm3.8.26c-.13,0-.39.52-.26.65s2.36,2.23,2.49,2.23h0c.13,0,.13-.13.13-.39.26-.27-2.23-2.49-2.36-2.49Zm-11,1.57c-.13,0-.52,0-.65.13l-.14.52h-.26l-.13.27.53.39s0,.79.13.79a.57.57,0,0,1,.39.13l.13-.79a2.37,2.37,0,0,1,.79.13h0c.26,0,.13-.26.13-.39s-.66-.26-.92-.26,0-.53,0-.66.13-.26,0-.26Zm10.48.79c-.13,0-.52.39-.39.52a25.78,25.78,0,0,0,2.62,2.75h0c.13,0,.13-.26.13-.39.26-.26-2.23-2.88-2.36-2.88Zm-.79,2.35s-.39.4-.39.53,2.49,2.75,2.49,2.75.26-.26.26-.4a15,15,0,0,0-2.36-2.88Zm-5,1.05c-.14,0-.4.66-.4.66l-.39-.14h0c-.13,0-.13.14-.13.27s.39.26.39.39l-.52.39.13.26h0c.13,0,.39-.13.39-.26h0l.13.4h.4v-.79h0a3.34,3.34,0,0,1,.65.26l.13-.13-.13-.26a1.31,1.31,0,0,0,.13-.39H444a3,3,0,0,0-.52.13l.13-.53a.28.28,0,0,0-.26-.26Zm-10.48.52a.48.48,0,0,0-.4.14l-.26.39h0c-.13,0-.39-.26-.52-.26h0c-.13,0-.13.26-.26.39s.52.52.52.52l-.65.4.39.52h0c.13,0,.52-.39.52-.39l.26.78h.4l.13-.78.52.13a1.85,1.85,0,0,0,.26-.53c0-.13-.65-.39-.65-.39s.13-.78,0-.92a.17.17,0,0,1-.26,0Zm13.88.53s-.52.26-.52.39,2.88,3.28,3,3.41h0c.13,0,.26-.26.26-.26.26,0-2.75-3.54-2.75-3.54Zm-9,.39h0c-.13,0-.39.53-.39.79s0,.13-.13.13h-.39c-.27.13-.27.65-.27.65l.53.4.39-.4a3.12,3.12,0,0,1,.13.53h.13a3.12,3.12,0,0,0,.53-.13l.39-.27-.13-1s-.39-.4-.39-.53-.13-.13-.4-.13Zm7.73,1.44a.68.68,0,0,0-.52.26c0,.14,2.49,3.41,2.49,3.41a1.31,1.31,0,0,1,.39-.13c.26-.13-2.23-3.54-2.36-3.54Zm-1.7,1.31c-.13,0-.39.26-.53.4a23.35,23.35,0,0,0,2.1,2.88,1.31,1.31,0,0,1,.39-.13,20.81,20.81,0,0,0-2-3.15Z" transform="translate(-420.68 -331.56)"/></g><text class="cls-4" transform="translate(56.89 15.84)">星<tspan class="cls-5" x="21.6" y="0">際漫遊</tspan></text><text x="-420.68" y="-331.56"/><text class="cls-6" transform="translate(57.35 42.39)">InterstellarGame</text></svg>