<?xml version="1.0" encoding="utf-8"?>
<!-- Generator: Adobe Illustrator 25.2.3, SVG Export Plug-In . SVG Version: 6.00 Build 0)  -->
<svg version="1.1" id="Capa_1" xmlns="http://www.w3.org/2000/svg" xmlns:xlink="http://www.w3.org/1999/xlink" x="0px" y="0px"
	 viewBox="0 0 512 512" style="enable-background:new 0 0 512 512;" xml:space="preserve">
<style type="text/css">
	.st0{fill:#E45A6E;}
	.st1{fill:#D82E44;}
	.st2{fill:#F1F1FB;}
	.st3{fill:#D7D6FB;}
	.st4{fill:#466288;}
	.st5{fill:#FDB43A;}
	.st6{fill:#F57A21;}
	.st7{fill:#354A67;}
	.st8{fill:#4BBEFD;}
	.st9{fill:#0590FB;}
</style>
<path class="st0" d="M221.8,139.5c-2.9-4.9-8.4-7.7-14-7.2l-121.9,9.4c-12.3,1-23.3,7.4-30.2,17.7L4.6,236.8
	c-5.2,7.8-6,17.6-2.2,26.2c3.8,8.6,11.6,14.6,20.9,16l98.8,15.3c0.8,0.1,1.5,0.2,2.3,0.2c5.1,0,9.9-2.6,12.6-6.9l84.6-132.3
	C224.6,150.5,224.7,144.4,221.8,139.5z"/>
<path class="st1" d="M372.5,290.2c-4.9-2.9-11-2.8-15.8,0.2L224.4,375c-5,3.2-7.7,9.1-6.7,14.9l15.3,98.8c1.4,9.3,7.4,17.1,16,20.9
	c3.6,1.6,7.3,2.4,11.1,2.4c5.3,0,10.5-1.5,15.1-4.6l77.4-51.2c10.3-6.8,16.8-17.8,17.7-30.2l9.4-121.9
	C380.2,298.6,377.4,293.1,372.5,290.2L372.5,290.2z"/>
<path class="st2" d="M192.9,412.3c6,6,14.5,8.8,22.8,7.4C337.8,399.2,434.4,298.1,471.2,227c40.8-79,42.4-162.4,40.2-201.6
	C510.7,12,500,1.3,486.6,0.6C447.4-1.5,364,0,285,40.8C213.9,77.6,112.8,174.2,92.4,296.4c-1.4,8.3,1.4,16.8,7.4,22.8L192.9,412.3z"
	/>
<path class="st3" d="M503.7,8.3L146.3,365.7l46.6,46.6c6,6,14.5,8.8,22.8,7.4C337.8,399.2,434.4,298.1,471.2,227
	c40.8-79,42.4-162.4,40.2-201.6C511,18.7,508.2,12.7,503.7,8.3L503.7,8.3z"/>
<path class="st4" d="M350.7,236.2c-19.2,0-38.4-7.3-53-21.9c-14.2-14.2-22-33-22-53s7.8-38.9,22-53c29.2-29.2,76.8-29.2,106.1,0
	c14.2,14.2,22,33,22,53s-7.8,38.9-22,53C389.1,228.9,369.9,236.2,350.7,236.2z M308.3,118.8L308.3,118.8L308.3,118.8z"/>
<path class="st4" d="M92.4,296.4c-1.4,8.3,1.4,16.8,7.4,22.8l93.1,93.1c6,6,14.5,8.8,22.8,7.4c26.6-4.4,51.9-12.7,75.7-23.7
	L116,220.6C105.1,244.4,96.8,269.8,92.4,296.4z"/>
<path class="st5" d="M15.3,421.9c3.8,0,7.7-1.5,10.6-4.4l49-49c5.9-5.9,5.9-15.4,0-21.2c-5.9-5.9-15.4-5.9-21.2,0l-49,49
	c-5.9,5.9-5.9,15.4,0,21.2C7.6,420.5,11.5,421.9,15.3,421.9z"/>
<path class="st5" d="M119.8,392.2c-5.9-5.9-15.4-5.9-21.2,0L4.4,486.4c-5.9,5.9-5.9,15.4,0,21.2c2.9,2.9,6.8,4.4,10.6,4.4
	s7.7-1.5,10.6-4.4l94.2-94.2C125.6,407.6,125.6,398.1,119.8,392.2z"/>
<path class="st6" d="M164.6,437.1c-5.9-5.9-15.4-5.9-21.2,0l-49,49c-5.9,5.9-5.9,15.4,0,21.2c2.9,2.9,6.8,4.4,10.6,4.4
	s7.7-1.5,10.6-4.4l49-49C170.5,452.5,170.5,443,164.6,437.1L164.6,437.1z"/>
<path class="st6" d="M4.4,507.6c2.9,2.9,6.8,4.4,10.6,4.4s7.7-1.5,10.6-4.4l94.2-94.2c5.9-5.9,5.9-15.4,0-21.2L4.4,507.6z"/>
<path class="st7" d="M146.3,365.7l46.6,46.6c6,6,14.5,8.8,22.8,7.4c26.6-4.4,51.9-12.7,75.7-23.7l-87.7-87.7L146.3,365.7z"/>
<path class="st7" d="M297.7,214.3c14.6,14.6,33.8,21.9,53,21.9c19.2,0,38.4-7.3,53-21.9c14.2-14.2,22-33,22-53s-7.8-38.9-22-53
	L297.7,214.3z"/>
<path class="st8" d="M350.7,116.3c-11.5,0-23,4.4-31.8,13.2c-8.5,8.5-13.2,19.8-13.2,31.8s4.7,23.3,13.2,31.8
	c17.5,17.5,46.1,17.5,63.6,0c8.5-8.5,13.2-19.8,13.2-31.8s-4.7-23.3-13.2-31.8C373.8,120.7,362.3,116.3,350.7,116.3L350.7,116.3z"/>
<path class="st9" d="M382.5,129.5l-63.6,63.6c17.5,17.5,46.1,17.5,63.6,0c8.5-8.5,13.2-19.8,13.2-31.8S391,138,382.5,129.5
	L382.5,129.5z"/>
</svg>
