<?xml version="1.0" encoding="utf-8"?>
<!-- Generator: Adobe Illustrator 25.2.3, SVG Export Plug-In . SVG Version: 6.00 Build 0)  -->
<svg version="1.1" id="圖層_1" xmlns="http://www.w3.org/2000/svg" xmlns:xlink="http://www.w3.org/1999/xlink" x="0px" y="0px"
	 viewBox="0 0 512 512" style="enable-background:new 0 0 512 512;" xml:space="preserve">
<style type="text/css">
	.st0{fill:#9FC9D3;}
	.st1{fill:#2C3E50;}
	.st2{fill:#95A5A5;}
	.st3{fill:#7F8C8D;}
	.st4{fill:#35495E;}
	.st5{fill:#3F5C6C;}
	.st6{fill:#A56A43;}
	.st7{fill:#F0C419;}
	.st8{fill:#547580;}
	.st9{fill:#F9EAB0;}
	.st10{fill:#F29C1F;}
</style>
<g id="_x30_20---Astronaut-Fishing">
	<path id="Shape" class="st0" d="M127.4,370.8l-53-120.1c-0.7-2.5-0.7,5.8-0.7-110.5c0-4.8,4-8.8,8.8-8.8s8.8,3.9,8.8,8.8v105
		l52.3,118.6c1.2,2.8,0.9,5.9-0.7,8.4s-4.4,4-7.4,4C132,376.2,128.7,374.1,127.4,370.8z"/>
	<path id="Shape_1_" class="st0" d="M29.6,376.2c-3,0-5.8-1.5-7.4-3.9c-1.6-2.5-1.9-5.7-0.7-8.4l52.3-118.6V140.2
		c0-4.8,4-8.8,8.8-8.8s8.8,3.9,8.8,8.8c0,117.3,0.4,108.1-0.7,110.5l-53,120.2C36.3,374.1,33.1,376.2,29.6,376.2L29.6,376.2z"/>
	<path id="Shape_2_" class="st1" d="M435.7,310L431,88.3l61.8,20.1c12.8,3.7,20.9,16.2,18.9,29.4l-20.8,138.5
		c-1.4,9.4-7.6,17.2-16.4,20.7C462.2,303,449.1,307.3,435.7,310z"/>
	<circle id="Oval" class="st2" cx="378.3" cy="392.8" r="119.2"/>
	<path id="Shape_3_" class="st3" d="M267.9,347.8c14.4-35.4,44.9-61.8,82-70.9c37.2-9.2,76.4,0.1,105.6,24.8
		c-3.7,4.8-8.8,8.4-14.5,10.3c-1.8,0.7,2.5-0.4-42.8,10.8c-4,1-6.8,4.6-6.7,8.8v57.3c0.1,9.4-4,18.4-11.3,24.3
		c-7.2,6-16.8,8.3-26,6.3c-14.5-3.3-24.7-16.3-24.5-31.1v-17.1c-0.1,11.9-7,22.7-17.7,27.8c-7.3,3.5-15.8,4-23.5,1.3
		c-7.7-2.7-14-8.4-17.5-15.8C266.8,376.3,267.9,369.8,267.9,347.8L267.9,347.8z"/>
	<circle id="Oval_1_" class="st3" cx="400.3" cy="450.2" r="26.5"/>
	<path id="Shape_4_" class="st4" d="M267.9,269.2c0-7.5,2.8-14.9,7.9-20.6l47.1-85.9l139.3,9.9v96.5c-0.1,13.3-8.5,25.1-21.1,29.4
		c-1.8,0.7,2-0.4-42.8,10.4c-4,1-6.8,4.6-6.7,8.8v57.4c0.1,9.3-4.1,18.1-11.4,24c-7.3,5.9-16.8,8.2-25.9,6.2
		c-14.5-3.3-24.7-16.3-24.5-31.1v-16.8c-0.1,11.9-7,22.7-17.7,27.8c-7.4,3.6-15.9,4-23.6,1.3c-7.7-2.7-14-8.4-17.5-15.8
		C266.8,361.9,267.9,363,267.9,269.2L267.9,269.2z"/>
	<path id="Shape_5_" class="st1" d="M312.1,273.7c0-7.3,2.1-14.3,6-20.3c1.2-3.3,4.3-5.5,7.8-5.7s6.7,1.8,8.3,4.9
		c1.6,3.1,1.2,6.9-1.1,9.6c-4.4,7.1-3.3,2.4-3.3,95.4c0,11.9-6.9,22.7-17.7,27.8V273.7L312.1,273.7z"/>
	<path id="Shape_6_" class="st5" d="M297.5,156.6c-12.3,10.5-17.6,32.3-20.5,47.5c-15.8,81.2,39.6,78.9,50.6,54.7
		c8.4-18.2-10.1-24.9,10.9-71.2L297.5,156.6z"/>
	<path id="Shape_7_" class="st6" d="M329.6,317.8v-53c-1.1-1.3-2.3-2.5-3.5-3.6C236.4,166.3,140.7,115.7,59.8,98
		c-9.3-1.5-18.1,4.5-20.1,13.6s3.5,18.3,12.5,20.8c93.7,20.5,172.4,80.7,218.7,123.6c17,15.6,41.8,42.6,58.8,61.8H329.6z"/>
	<circle id="Oval_2_" class="st2" cx="82.5" cy="414.9" r="79.4"/>
	<circle id="Oval_3_" class="st3" cx="113.4" cy="418.3" r="22.1"/>
	<g>
		<path id="Shape_8_" class="st7" d="M197.3,97.1V61.8c0-4.8,4-8.8,8.8-8.8s8.8,3.9,8.8,8.8v35.3c0,4.8-3.9,8.8-8.8,8.8
			C201.3,105.9,197.3,102,197.3,97.1z"/>
		<path id="Shape_9_" class="st7" d="M179.7,79.5c0-4.8,3.9-8.8,8.8-8.8h35.3c4.8,0,8.8,3.9,8.8,8.8c0,4.8-3.9,8.8-8.8,8.8h-35.3
			C183.6,88.3,179.7,84.3,179.7,79.5z"/>
		<path id="Shape_10_" class="st7" d="M144.4,282.5v-35.3c0-4.8,4-8.8,8.8-8.8s8.8,3.9,8.8,8.8v35.3c0,4.8-3.9,8.8-8.8,8.8
			S144.3,287.4,144.4,282.5z"/>
		<path id="Shape_11_" class="st7" d="M126.7,264.9c0-4.8,3.9-8.8,8.8-8.8h35.3c4.8,0,8.8,4,8.8,8.8s-3.9,8.8-8.8,8.8h-35.3
			C130.6,273.7,126.7,269.7,126.7,264.9z"/>
		<path id="Shape_12_" class="st7" d="M38.4,44.1V8.8c0-4.8,4-8.8,8.8-8.8C52,0,56,3.9,56,8.8v35.4c0,4.8-3.9,8.8-8.8,8.8
			C42.4,53,38.4,49,38.4,44.1z"/>
		<path id="Shape_13_" class="st7" d="M20.8,26.5c0-4.8,3.9-8.8,8.8-8.8h35.3c4.8,0,8.8,4,8.8,8.8s-3.9,8.8-8.8,8.8H29.6
			C24.7,35.3,20.8,31.3,20.8,26.5z"/>
	</g>
	<path id="Shape_14_" class="st3" d="M326,451.2c14.6,13,16,35.4,3,50c-22-10-40.5-26.4-53-47C289,439.6,311.4,438.2,326,451.2z"/>
	<path id="Shape_15_" class="st3" d="M450.1,344.5c9.2-7.5,21.3-10.5,33-8.2c12.1,22.2,16.7,47.7,13.2,72.7
		c-12.2,7.5-27.6,7.9-40.2,0.9s-20.4-20.3-20.4-34.7C435.7,363.3,441,352,450.1,344.5z"/>
	<path id="Shape_16_" class="st5" d="M412,186.4c-1.4,8.3-6.7,15.4-14.3,19.2l-30.2,15.1c-21.9,11.1-28.5,12.7-33.8,21.5
		c-5,8.1-5.2,18.4-0.5,26.7c4.7,8.3,13.5,13.5,23.1,13.5c8.2,0,7.7-0.8,65.1-29.4c31.2-15.6,48.5-49.7,42.8-84.1
		c-2.5-15.6-2.5-18.2-5.9-23.9L412,186.4z"/>
	<path id="Shape_17_" class="st8" d="M373.9,0c-53.7,0-97.1,43.5-97.1,97.1s43.5,97.1,97.1,97.1S471,150.7,471,97.1S427.6,0,373.9,0
		z"/>
	<path id="Shape_18_" class="st7" d="M289,49.8c16.2-9.8,34.9-14.9,53.9-14.6c69.9,0,108.9,59.5,66.2,99.8
		c-28.9,27.6-83.7,32.1-120.1,9.3C272.7,115,272.7,79.2,289,49.8z"/>
	<path id="Shape_19_" class="st9" d="M294.3,97.1c0-34.8,34.6-44.1,53-44.1c4.8,0,8.8,4,8.8,8.8s-3.9,8.8-8.8,8.8
		c-1.4,0-35.3,0-35.3,26.5c0,4.8-3.9,8.8-8.8,8.8C298.4,105.9,294.4,102,294.3,97.1z"/>
	<path id="Shape_20_" class="st10" d="M280.4,123.6c65.7,11.6,110.7-19.5,138.7-52.3c20,31.1,0.8,69.6-44.1,83.2
		c-28.7,8.7-59.8,5.1-85.8-10C285.5,137.9,282.5,130.9,280.4,123.6L280.4,123.6z"/>
	<path id="Shape_21_" class="st3" d="M3.8,425c10-10.8,25.7-14.2,39.3-8.6c13.7,5.6,22.4,19.1,21.9,33.8s-10,27.6-24,32.3
		C20.5,469.9,6.9,448.8,3.8,425L3.8,425z"/>
	<path id="Shape_22_" class="st3" d="M47.6,343.5c15.2-7.4,32.4-9.8,49.1-6.8c10,15.3-2.9,33-23,33c-13.4,1.1-25.2-8.7-26.5-22.1
		C47.3,346.2,47.4,344.9,47.6,343.5z"/>
</g>
</svg>
