<svg id="border2-5" xmlns="http://www.w3.org/2000/svg" width="485" height="405.255" viewBox="0 0 485 405.255">
  <line id="直线_11" data-name="直线 11" x1="158" transform="translate(208.25 402.755)" fill="none" stroke="#ce93d7" stroke-miterlimit="10" stroke-width="5"/>
  <path id="路径_182" data-name="路径 182" d="M680.25,469V644a25,25,0,0,1-25,25H574" transform="translate(-197.75 -266.245)" fill="none" stroke="#ce93d7" stroke-miterlimit="10" stroke-width="5"/>
  <path id="路径_183" data-name="路径 183" d="M680.25,459V324a25,25,0,0,0-25-25H589" transform="translate(-197.75 -296.5)" fill="none" stroke="#ce93d7" stroke-miterlimit="10" stroke-width="5"/>
  <line id="直线_12" data-name="直线 12" x2="78" transform="translate(110.25 402.755)" fill="none" stroke="#ce93d7" stroke-miterlimit="10" stroke-width="5"/>
  <line id="直线_13" data-name="直线 13" x2="43.75" transform="translate(317.5 2.5)" fill="none" stroke="#ce93d7" stroke-miterlimit="10" stroke-width="5"/>
  <line id="直线_14" data-name="直线 14" y1="76" transform="translate(2.5 141.5)" fill="none" stroke="#ce93d7" stroke-miterlimit="10" stroke-width="5"/>
  <line id="直线_15" data-name="直线 15" x1="39" transform="translate(61.25 402.755)" fill="none" stroke="#ce93d7" stroke-miterlimit="10" stroke-width="5"/>
  <path id="路径_184" data-name="路径 184" d="M200.25,405V324a25,25,0,0,1,25-25h140" transform="translate(-197.75 -296.5)" fill="none" stroke="#ce93d7" stroke-miterlimit="10" stroke-width="5"/>
  <path id="路径_185" data-name="路径 185" d="M249,669H225.25a25,25,0,0,1-25-25V511" transform="translate(-197.75 -266.245)" fill="none" stroke="#ce93d7" stroke-miterlimit="10" stroke-width="5"/>
</svg>
