<svg xmlns="http://www.w3.org/2000/svg" xmlns:xlink="http://www.w3.org/1999/xlink" width="186.273" height="186.267" viewBox="0 0 186.273 186.267">
  <defs>
    <filter id="_2" x="74.304" y="56.901" width="48" height="86" filterUnits="userSpaceOnUse">
      <feOffset dy="3" input="SourceAlpha"/>
      <feGaussianBlur stdDeviation="3" result="blur"/>
      <feFlood flood-opacity="0.161"/>
      <feComposite operator="in" in2="blur"/>
      <feComposite in="SourceGraphic"/>
    </filter>
  </defs>
  <g id="组_229" data-name="组 229" transform="translate(-369.039 -424.582)">
    <g id="flat" transform="translate(358.151 468.218) rotate(-17)">
      <path id="路径_186" data-name="路径 186" d="M93.541,7.309c-1.316-3.175-7.407-3.232-16.33-1.287l-.372.086L80.071,11.2c.315-.086.629-.143.915-.2a35.319,35.319,0,0,1,6.378-.887,30.839,30.839,0,0,1-5.434,3.632c-3.318,1.888-7.379,3.918-10.839,5.634l-1.516.772a96.3,96.3,0,0,1-12.9,5.548,16.639,16.639,0,0,1-6.092,1.258c.057-.972,1.487-2.46,4.233-4.4.172-.114.343-.257.515-.372l-.915-6.349c-.229.172-.458.315-.686.486-4.6,3.289-10.353,8.408-8.408,13.184a4.942,4.942,0,0,0,2.917,2.746,7.115,7.115,0,0,0,2.66.458,31.851,31.851,0,0,0,10.982-2.8c2.8-1.087,6.177-2.6,10.267-4.662l1.516-.744q4.5-2.231,8.237-4.2C90.509,15.717,95.457,12,93.541,7.309Z" transform="translate(75.049 1.326)" fill="#ad6327"/>
      <path id="路径_187" data-name="路径 187" d="M62.643,14.364q4.5-2.231,8.237-4.2a14.3,14.3,0,0,1-13.9,10.982,14.119,14.119,0,0,1-6.12-1.373c2.8-1.087,6.177-2.6,10.267-4.662Z" transform="translate(86.07 11.459)" fill="#d3843d"/>
      <path id="路径_188" data-name="路径 188" d="M63.873,21.476a96.293,96.293,0,0,1-12.9,5.548A13.962,13.962,0,0,1,48,18.3a4.862,4.862,0,0,1,.029-.658,14.3,14.3,0,0,1,23.48-10.3,14.649,14.649,0,0,1,3.775,4.976,14.809,14.809,0,0,1,.944,2.746c-3.318,1.888-7.379,3.918-10.839,5.634Z" transform="translate(80.75 0)" fill="#d3843d"/>
      <path id="路径_189" data-name="路径 189" d="M82.033,55.108A27.378,27.378,0,0,1,80.4,64.5,28,28,0,0,1,26,55.108a27.376,27.376,0,0,1,1.634-9.392,28,28,0,0,1,54.4,9.392Z" transform="translate(33.118 29.763)" fill="#e97424"/>
      <path id="路径_190" data-name="路径 190" d="M80.438,48.359c-4.584,11.9-17.721,19.02-31.145,16.882S26.044,52.324,26,39.688a23.522,23.522,0,0,1,1.635-8.67H43.243c5.584-.363,10.451,3.5,10.934,8.67s5.35,9.033,10.934,8.67Z" transform="translate(32.489 47.148)" fill="#f9bb4b"/>
      <path id="路径_192" data-name="路径 192" d="M74.235,103.8c-23.32,0-45.156-8.008-56.982-20.912l3.993-3.935c10.827,11.8,31.131,19.127,52.988,19.127,33.479,0,60.716-16.679,60.716-37.179S107.715,23.72,74.235,23.72,13.52,40.4,13.52,60.9a22.783,22.783,0,0,0,.571,5.065l-5.376,1.31A28.95,28.95,0,0,1,8,60.9C8,37.244,37.715,18,74.235,18s66.235,19.244,66.235,42.9S110.756,103.8,74.235,103.8Z" transform="translate(11.159 23.629)" fill="#394d5c"/>
      <path id="路径_193" data-name="路径 193" d="M87.8,121C40.489,121,2,96.628,2,66.664,2,42.927,25.906,22.116,61.486,14.9l1.144,5.608C29.784,27.163,7.72,45.713,7.72,66.664c0,26.809,35.923,48.618,80.078,48.618a110.61,110.61,0,0,0,55.737-13.9l2.923,4.913C130.516,115.783,109.681,121,87.8,121Z" transform="translate(0 15.796)" fill="#394d5c"/>
      <path id="路径_194" data-name="路径 194" d="M113.169,96.045l-4.147-3.935a34.362,34.362,0,0,0,10.653-23.772c0-26.809-35.923-48.618-80.077-48.618-3.755,0-7.522.16-11.2.475l-.486-5.7c3.832-.329,7.765-.5,11.683-.5,47.309,0,85.8,24.375,85.8,54.338a39.853,39.853,0,0,1-12.226,27.707Z" transform="translate(43.395 16.961)" fill="#394d5c"/>
      <circle id="椭圆_21" data-name="椭圆 21" cx="11.5" cy="11.5" r="11.5" transform="translate(137.195 106.689)" fill="#91cdf2"/>
      <circle id="椭圆_22" data-name="椭圆 22" cx="11.5" cy="11.5" r="11.5" transform="translate(16 87.342)" fill="#d3843d"/>
      <circle id="椭圆_24" data-name="椭圆 24" cx="11.5" cy="11.5" r="11.5" transform="translate(54.256 21.156)" fill="#f9bb4b"/>
      <path id="路径_195" data-name="路径 195" d="M25,54h5.72v5.72H25Z" transform="translate(40.875 88.518)" fill="#fcf05a"/>
      <path id="路径_196" data-name="路径 196" d="M25,58h5.72v5.72H25Z" transform="translate(40.875 95.958)" fill="#fcf05a"/>
      <path id="路径_197" data-name="路径 197" d="M23,56h5.72v5.72H23Z" transform="translate(37.321 92.238)" fill="#fcf05a"/>
      <path id="路径_198" data-name="路径 198" d="M27,56h5.72v5.72H27Z" transform="translate(44.429 92.238)" fill="#fcf05a"/>
      <path id="路径_199" data-name="路径 199" d="M37,6h5.72v5.72H37Z" transform="translate(62.201 3.722)" fill="#fcf05a"/>
      <path id="路径_200" data-name="路径 200" d="M37,10h5.72v5.72H37Z" transform="translate(62.201 11.161)" fill="#fcf05a"/>
      <path id="路径_201" data-name="路径 201" d="M35,8h5.72v5.72H35Z" transform="translate(58.647 7.441)" fill="#fcf05a"/>
      <path id="路径_202" data-name="路径 202" d="M39,8h5.72v5.72H39Z" transform="translate(65.755 7.441)" fill="#fcf05a"/>
      <path id="路径_203" data-name="路径 203" d="M31.739,17.44a8.58,8.58,0,0,1-8.58-8.58,2.86,2.86,0,1,0-5.72,0,8.58,8.58,0,0,1-8.58,8.58,2.86,2.86,0,1,0,0,5.72,8.58,8.58,0,0,1,8.58,8.58,2.86,2.86,0,0,0,5.72,0,8.58,8.58,0,0,1,8.58-8.58,2.86,2.86,0,0,0,0-5.72ZM20.3,23.248A14.265,14.265,0,0,0,17.351,20.3,14.265,14.265,0,0,0,20.3,17.351,14.265,14.265,0,0,0,23.248,20.3,14.265,14.265,0,0,0,20.3,23.248Z" transform="translate(7.44 3.722)" fill="#f98c96"/>
      <path id="路径_204" data-name="路径 204" d="M73.739,61.44a8.58,8.58,0,0,1-8.58-8.58,2.86,2.86,0,0,0-5.72,0,8.58,8.58,0,0,1-8.58,8.58,2.86,2.86,0,0,0,0,5.72,8.58,8.58,0,0,1,8.58,8.58,2.86,2.86,0,1,0,5.72,0,8.58,8.58,0,0,1,8.58-8.58,2.86,2.86,0,0,0,0-5.72ZM62.3,67.248A14.265,14.265,0,0,0,59.351,64.3,14.265,14.265,0,0,0,62.3,61.351,14.266,14.266,0,0,0,65.248,64.3,14.266,14.266,0,0,0,62.3,67.248Z" transform="translate(80.751 81.079)" fill="#f98c96"/>
      <ellipse id="椭圆_25" data-name="椭圆 25" cx="11.5" cy="11" rx="11.5" ry="11" transform="translate(5 128.677)" fill="#50b4f8"/>
    </g>
    <g transform="matrix(1, 0, 0, 1, 369.04, 424.58)" filter="url(#_2)">
      <text id="_2-2" data-name="2" transform="translate(83.3 117.9)" fill="#fff" font-size="51" font-family="SegoeUI-Bold, Segoe UI" font-weight="700"><tspan x="0" y="0">2</tspan></text>
    </g>
  </g>
</svg>
