<?xml version="1.0" encoding="utf-8"?>
<!-- Generator: Adobe Illustrator 25.2.0, SVG Export Plug-In . SVG Version: 6.00 Build 0)  -->
<svg version="1.1" id="title-box-left" xmlns="http://www.w3.org/2000/svg" xmlns:xlink="http://www.w3.org/1999/xlink" x="0px"
	 y="0px" viewBox="0 0 210 53" style="enable-background:new 0 0 210 53;" xml:space="preserve">
<style type="text/css">
	.st0{fill:#B388FE;}
	.st1{fill:none;}
	.st2{fill:#FFFFFF;}
	.st3{font-family:'AdobeMingStd-Light-B5pc-H';}
	.st4{font-size:16px;}
</style>
<path id="Subtraction_2" class="st0" d="M205,48H5V9h180.9L205,34.7V48z"/>
<g id="Subtraction_1" transform="translate(0 4)">
	<path class="st1" d="M210,49H0V0h189.3L210,28.8V49z"/>
	<path class="st0" d="M207,46V29.8L187.7,3H3v43H207 M210,49L210,49H0V0h189.3L210,28.8V49z"/>
</g>
<rect id="Rectangle_21" x="46" class="st0" width="5" height="4"/>
<rect id="Rectangle_26" x="53" class="st0" width="5" height="4"/>
<rect id="Rectangle_25" x="39" class="st0" width="5" height="4"/>
<path id="Subtraction_3" class="st0" d="M88.2,4H60.5V0h24.9L88.2,4L88.2,4z"/>
<text transform="matrix(1 0 0 1 82.2664 36.6426)" class="st2 st3 st4">優惠券</text>
</svg>
