<?xml version="1.0" encoding="utf-8"?>
<!-- Generator: Adobe Illustrator 25.2.0, SVG Export Plug-In . SVG Version: 6.00 Build 0)  -->
<svg version="1.1" id="flat" xmlns="http://www.w3.org/2000/svg" xmlns:xlink="http://www.w3.org/1999/xlink" x="0px" y="0px"
	 viewBox="0 0 512 512" style="enable-background:new 0 0 512 512;" xml:space="preserve">
<style type="text/css">
	.st0{fill:#C8CBD2;}
</style>
<path class="st0" d="M370.1,410.6L345,279.4L252,352.6l37.2,48l-90.4,83.3c-4.3,4-4.6,10.7-0.6,15c2.9,3.1,7.3,4.2,11.3,2.8
	l135.7-47.8C363.1,447.6,373.6,429.2,370.1,410.6z"/>
<path class="st0" d="M110.7,151.2l131.2,25.1l-73.3,93l-48-37.2l-83.3,90.4c-4,4.3-10.7,4.6-15,0.6c-3.1-2.9-4.2-7.3-2.8-11.3
	l47.8-135.7C73.7,158.2,92.1,147.7,110.7,151.2z"/>
<path class="st0" d="M402.7,21.3C353.5,36.5,293.7,70,237.5,141.7c-64.8,82.7-99.8,130.1-118.5,156.7l104.2,104.2
	c26.6-18.8,74-53.8,156.7-118.5c71.7-56.2,105.2-116,120.4-165.1L402.7,21.3z"/>
<path class="st0" d="M379.9,284.1c-82.7,64.7-130.1,99.8-156.7,118.5l-19.1-19.1c26.6-18.8,74.1-53.8,156.7-118.5
	c71.7-56.2,105.2-116,120.4-165.1l19.1,19.1C485.2,168.2,451.6,227.9,379.9,284.1L379.9,284.1z"/>
<path class="st0" d="M511.4,27.2c-0.7-9.1-7.9-16.3-17-17c-36.5-2.4-73,3.2-107.1,16.3l107.8,107.8
	C508.2,100.2,513.7,63.7,511.4,27.2z"/>
<path class="st0" d="M495.1,134.3L476,115.3c12.8-33.5,18.4-69.3,16.4-105.1c0.7,0.1,1.3,0.1,1.9,0.1c9.1,0.7,16.2,7.9,17,17
	C513.7,63.7,508.2,100.2,495.1,134.3z"/>
<path class="st0" d="M130.6,282.2c-12.5,17.2-20.3,28.6-25.1,35.9c-4.5,6.9-3.6,16,2.2,21.9l73.9,73.9c5.8,5.8,15,6.8,21.9,2.2
	c7.3-4.8,18.7-12.6,35.9-25.1L130.6,282.2z"/>
<path class="st0" d="M239.4,391.1c-17.2,12.5-28.6,20.3-35.9,25.1c-6.9,4.6-16.1,3.6-21.9-2.2l-19.1-19.1c5.8,5.8,15,6.8,21.9,2.2
	c7.3-4.8,18.7-12.6,35.9-25.1L239.4,391.1z"/>
<circle class="st0" cx="357.2" cy="164.4" r="55.6"/>
<path class="st0" d="M396.5,203.8c-21.7,21.7-56.9,21.7-78.6,0c0,0,0,0,0,0c-2.1-2.1-4-4.3-5.7-6.7c24.9,18,59.7,12.4,77.7-12.4
	c14.1-19.5,14.1-45.8,0-65.2c2.4,1.7,4.6,3.7,6.7,5.7C418.1,146.9,418.2,182.1,396.5,203.8L396.5,203.8z"/>
<path class="st0" d="M124.1,391.4c0,0,39.5,31.6,15.3,72.9s-58.2,32.2-58.2,32.2s11.3-16.2,9.6-21.3c0,0-41.4,49.7-90.8,12.1
	c0,0,20.7-7.9,25-25s12.6-33.3,23-41.1c-6.1,5.8-15.1,7.4-22.8,4c7.3-4,11.4-11.9,10.4-20.1C33.9,390.9,86.8,353.4,124.1,391.4z"/>
<path class="st0" d="M128.7,395.9c0,0-18.5-23.1-42.6-8.9s-18.8,34-18.8,34s9.5-6.6,12.4-5.6c0,0-29.1,24.2-7,53
	c0,0,4.6-12.1,14.6-14.6s19.5-7.4,24-13.4c-3.4,3.6-4.3,8.8-2.3,13.3c2.3-4.2,7-6.6,11.8-6.1C129.1,448.7,151,417.7,128.7,395.9
	L128.7,395.9z"/>
</svg>
