<svg id="圖層_1" data-name="圖層 1" xmlns="http://www.w3.org/2000/svg" viewBox="0 0 512 486.4"><defs><style>.cls-1{fill:#27536b;}.cls-2{fill:#b388fe;}.cls-3{fill:#9c64a5;}.cls-4{fill:#fff;}.cls-5{fill:#894b9d;}.cls-6{fill:#955ba5;}.cls-7{fill:#f29c1f;}.cls-8{fill:#f9c795;}.cls-9{fill:#fdd7ad;}.cls-10{fill:#2c3e50;}.cls-11{fill:#d75e72;}.cls-12{fill:#f0c419;}.cls-13{fill:#802d40;}</style></defs><g id="_009---Happy-Astronaut" data-name="009---Happy-Astronaut"><path class="cls-1" d="M456.05,421.48A254.92,254.92,0,0,0,512,261.74c0-141.38-114.61-256-256-256S0,120.36,0,261.74a255,255,0,0,0,60.29,165" transform="translate(0 -5.75)"/><polygon class="cls-2" points="406.37 406.4 392.49 472.6 407.1 462.65 456.05 415.73 406.37 406.4"/><path class="cls-2" d="M407.1,468.4a256.84,256.84,0,0,0,36.67-32.65q6.41-6.9,12.28-14.27Z" transform="translate(0 -5.75)"/><polygon class="cls-2" points="392.49 406.4 392.49 472.6 406.37 406.4 392.49 406.4"/><path class="cls-2" d="M429,412.15H406.37l49.68,9.33A43.66,43.66,0,0,0,429,412.15Z" transform="translate(0 -5.75)"/><path class="cls-2" d="M407.1,468.4l-14.61,10Q400,473.63,407.1,468.4Z" transform="translate(0 -5.75)"/><polygon class="cls-2" points="60.29 421.02 114.88 469.6 129.49 478.59 115.61 406.4 60.29 421.02"/><path class="cls-2" d="M68.23,435.75a257.33,257.33,0,0,0,46.65,39.6L60.29,426.77Q64.16,431.35,68.23,435.75Z" transform="translate(0 -5.75)"/><path class="cls-2" d="M93,412.15a43.73,43.73,0,0,0-32.67,14.62l55.32-14.62Z" transform="translate(0 -5.75)"/><polygon class="cls-2" points="115.61 406.4 129.49 478.59 129.49 406.4 115.61 406.4"/><path class="cls-2" d="M129.49,484.33l-14.61-9Q122,480.08,129.49,484.33Z" transform="translate(0 -5.75)"/><polygon class="cls-3" points="115.61 406.4 114.88 469.6 129.49 478.59 392.49 472.6 407.1 462.65 406.37 406.4 115.61 406.4"/><path class="cls-3" d="M144.29,492.14H367.73a255.18,255.18,0,0,0,24.76-13.79l-263,6Q136.75,488.47,144.29,492.14Z" transform="translate(0 -5.75)"/><path class="cls-3" d="M114.88,419.45v55.9l.73-63.2A36.59,36.59,0,0,0,114.88,419.45Z" transform="translate(0 -5.75)"/><path class="cls-3" d="M370.58,382.92H151.41a36.55,36.55,0,0,0-35.8,29.23H406.37A36.53,36.53,0,0,0,370.58,382.92Z" transform="translate(0 -5.75)"/><polygon class="cls-4" points="83.95 176.19 120.95 172.1 83.95 168.02 79.86 131.02 75.77 168.02 38.78 172.1 75.77 176.19 79.86 213.19 83.95 176.19"/><polygon class="cls-4" points="440 340.49 463.64 337.88 440 335.26 437.39 311.62 434.77 335.26 411.13 337.88 434.77 340.49 437.39 364.13 440 340.49"/><polygon class="cls-4" points="458.89 210.09 495.89 206 458.89 201.91 454.8 164.91 450.71 201.91 413.72 206 450.71 210.09 454.8 247.09 458.89 210.09"/><rect class="cls-4" x="443.73" y="287.76" width="10.36" height="10.36" transform="translate(-75.65 397.48) rotate(-45)"/><rect class="cls-4" x="43.95" y="326.17" width="10.36" height="10.36" transform="translate(-219.91 126.04) rotate(-45)"/><rect class="cls-4" x="48.75" y="251.17" width="10.36" height="10.36" transform="translate(-165.47 107.47) rotate(-45)"/><rect class="cls-4" x="316.34" y="42.74" width="10.36" height="10.36" transform="translate(60.28 235.64) rotate(-45)"/><polyline class="cls-4" points="206.42 67.35 199.1 60.02 206.42 52.7 213.75 60.02 206.42 67.35"/><path id="Shape" class="cls-5" d="M443.63,247.77a177,177,0,0,1-63.12,135.15h-239A177.11,177.11,0,0,1,78.35,247.77,180.83,180.83,0,0,1,261,68.78,180.88,180.88,0,0,1,443.63,247.77Z" transform="translate(0 -5.75)"/><path id="Shape-2" data-name="Shape" class="cls-6" d="M427.63,174.49A226.46,226.46,0,0,1,79.89,270.85C65.42,164.48,150.38,68.78,261,68.78A182.65,182.65,0,0,1,427.63,174.49Z" transform="translate(0 -5.75)"/><path id="Shape-3" data-name="Shape" class="cls-7" d="M389.86,225.27c-47.63-51.07-113.45-76.13-180-52.53l-36.53,18.12a217.64,217.64,0,0,0-41.2,34.41,131.5,131.5,0,0,1,257.74,0Z" transform="translate(0 -5.75)"/><path id="Shape-4" data-name="Shape" class="cls-8" d="M392.49,295.26a87.66,87.66,0,0,1-87.66,87.66H217.16a87.67,87.67,0,0,1-87.67-87.66c0-42.16-.8-53.26,2.63-70a217.64,217.64,0,0,1,41.2-34.41l36.53-18.12c66.63-23.67,132.53,1.61,180,52.53C393.22,241.71,392.49,249.81,392.49,295.26Z" transform="translate(0 -5.75)"/><path id="Shape-5" data-name="Shape" class="cls-9" d="M392.49,280.64a87.67,87.67,0,0,1-87.66,87.67H217.16a87.67,87.67,0,0,1-87.67-87.67c0-26.66-.73-39,2.63-55.37a217.64,217.64,0,0,1,41.2-34.41l36.53-18.12c66.63-23.67,132.53,1.61,180,52.53C393.3,241.71,392.49,252.3,392.49,280.64Z" transform="translate(0 -5.75)"/><path id="Shape-6" data-name="Shape" class="cls-10" d="M217.16,266a14.61,14.61,0,0,1-14.61-14.61V229.5a14.61,14.61,0,1,1,29.22,0v21.92A14.61,14.61,0,0,1,217.16,266Z" transform="translate(0 -5.75)"/><path id="Shape-7" data-name="Shape" class="cls-10" d="M304.83,266a14.62,14.62,0,0,1-14.62-14.61V229.5a14.62,14.62,0,0,1,29.23,0v21.92A14.61,14.61,0,0,1,304.83,266Z" transform="translate(0 -5.75)"/><path id="Shape-8" data-name="Shape" class="cls-11" d="M348.66,295.26s0,45.58-60.42,56.25a170.63,170.63,0,0,1-54.5,0c-60.42-10.67-60.42-56.25-60.42-56.25Z" transform="translate(0 -5.75)"/><path id="Shape-9" data-name="Shape" class="cls-7" d="M370.58,419.45v43.83a7.31,7.31,0,0,1-7.31,7.31H290.21a7.3,7.3,0,0,1-7.3-7.31V441.37h29.22a7.31,7.31,0,0,0,7.31-7.31V412.15h43.83A7.3,7.3,0,0,1,370.58,419.45Z" transform="translate(0 -5.75)"/><path id="Shape-10" data-name="Shape" class="cls-10" d="M158.71,434.06h-7.3a7.31,7.31,0,1,1,0-14.61h7.3a7.31,7.31,0,1,1,0,14.61Z" transform="translate(0 -5.75)"/><path id="Shape-11" data-name="Shape" class="cls-10" d="M224.46,434.06H187.94a7.31,7.31,0,1,1,0-14.61h36.52a7.31,7.31,0,1,1,0,14.61Z" transform="translate(0 -5.75)"/><path id="Shape-12" data-name="Shape" class="cls-10" d="M158.71,463.28h-7.3a7.31,7.31,0,1,1,0-14.61h7.3a7.31,7.31,0,1,1,0,14.61Z" transform="translate(0 -5.75)"/><path id="Shape-13" data-name="Shape" class="cls-10" d="M224.46,463.28H187.94a7.31,7.31,0,1,1,0-14.61h36.52a7.31,7.31,0,1,1,0,14.61Z" transform="translate(0 -5.75)"/><path id="Shape-14" data-name="Shape" class="cls-12" d="M319.44,412.15v21.91a7.31,7.31,0,0,1-7.31,7.31H282.91V419.45a7.3,7.3,0,0,1,7.3-7.3Z" transform="translate(0 -5.75)"/><path id="Shape-15" data-name="Shape" class="cls-8" d="M326.74,273.34H195.24a7.31,7.31,0,0,1,0-14.61h131.5a7.31,7.31,0,1,1,0,14.61Z" transform="translate(0 -5.75)"/><path id="Shape-16" data-name="Shape" class="cls-4" d="M217.16,236.81a7.31,7.31,0,0,1-7.31-7.31v-7.3a7.31,7.31,0,1,1,14.61,0v7.3A7.3,7.3,0,0,1,217.16,236.81Z" transform="translate(0 -5.75)"/><path id="Shape-17" data-name="Shape" class="cls-4" d="M304.83,236.81a7.31,7.31,0,0,1-7.31-7.31v-7.3a7.31,7.31,0,1,1,14.61,0v7.3A7.3,7.3,0,0,1,304.83,236.81Z" transform="translate(0 -5.75)"/><path id="Shape-18" data-name="Shape" class="cls-13" d="M288.24,351.51a170.63,170.63,0,0,1-54.5,0,43.82,43.82,0,0,1-10.66-56.25h75.83a43.84,43.84,0,0,1-10.67,56.25Z" transform="translate(0 -5.75)"/></g></svg>