<svg id="圖層_1" data-name="圖層 1" xmlns="http://www.w3.org/2000/svg" viewBox="0 0 116.3 50"><defs><style>.cls-1{fill:#fff;}.cls-2{fill:#b388fe;}</style></defs><path class="cls-1" d="M295.2,196.5h50a25,25,0,0,1,24.91,23l16.39,7.67-17.3,1.34a25,25,0,0,1-24,18h-50a25,25,0,0,1-25-25h0A25,25,0,0,1,295.2,196.5Z" transform="translate(-270.2 -196.5)"/><path class="cls-2" d="M295.2,196.5h50a25,25,0,0,1,24.91,23l16.39,7.67-17.3,1.34a25,25,0,0,1-24,18h-50a25,25,0,0,1-25-25h0A25,25,0,0,1,295.2,196.5Z" transform="translate(-270.2 -196.5)"/></svg>