<?xml version="1.0" encoding="utf-8"?>
<!-- Generator: Adobe Illustrator 25.2.3, SVG Export Plug-In . SVG Version: 6.00 Build 0)  -->
<svg version="1.1" id="圖層_1" xmlns="http://www.w3.org/2000/svg" xmlns:xlink="http://www.w3.org/1999/xlink" x="0px" y="0px"
	 viewBox="0 0 512 512" style="enable-background:new 0 0 512 512;" xml:space="preserve">
<style type="text/css">
	.st0{fill:#9362F5;}
	.st1{fill:#50B4F8;}
	.st2{fill:#C8D952;}
	.st3{fill:#D0BAFA;}
	.st4{fill:#F98C96;}
	.st5{fill:#D9176C;}
	.st6{display:none;fill:#FCF05A;}
	.st7{display:none;fill:#8EC13F;}
	.st8{fill:#91CDF2;}
	.st9{fill:#F9BB4B;}
</style>
<g id="flat">
	<path class="st0" d="M408,248c0,1.4,0,2.6-0.1,4c-0.1,1.2-0.1,2.3-0.2,3.5c0,1-0.1,2.1-0.2,3.1c-5.9,83.8-78.7,146.9-162.5,141
		c-12.6-0.9-25-3.3-37-7.3c-6.9-2.3-13.6-5.1-20.2-8.3c-27.5-13.8-50.1-35.6-64.9-62.6c-1-1.7-1.9-3.4-2.8-5.1
		c-4.3-8.5-7.9-17.4-10.5-26.6l-1-3.4c-0.4-1.6-0.8-3.2-1-4.8c-1.5-6.4-2.6-12.9-3.1-19.4c-0.5-4.7-0.7-9.4-0.7-14.2
		c0-1.2,0-2.4,0.1-3.6c0-0.4,0-0.8,0.1-1.2c0.2-10.6,1.6-21.1,4.2-31.4l0.2-1c20.5-81.4,103.1-130.8,184.5-110.3
		c15.5,3.9,30.3,10.2,43.9,18.8c3.8,2.3,7.4,4.9,10.9,7.5c1.7,1.3,3.3,2.6,4.9,3.8s3,2.6,4.6,3.9c10.5,9.4,19.6,20.2,27.1,32.2
		c1.4,2.2,2.8,4.5,4.1,6.7c6.8,12.1,12,25.1,15.3,38.6c0.2,0.7,0.3,1.4,0.5,2.1c1.6,7,2.7,14.2,3.3,21.4
		C407.8,239.7,408,243.8,408,248L408,248z"/>
	<path class="st1" d="M472,432c0,8.7-2,17.2-5.9,25c-9.4,19-28.8,31.1-50.1,31c-8.3,0-16.5-1.8-24-5.4
		c-16.6-7.8-28.2-23.2-31.2-41.3c-0.6-3.1-0.8-6.2-0.8-9.3c0.1-30.9,25.2-56,56.1-55.9c21.9,0,41.8,12.8,50.9,32.8
		C470.3,416.1,472,424,472,432z"/>
	<path class="st2" d="M467,408.9l-18,11.7l-24.7-16.5l-24.7,8.2l-8.2,24.6l-30.6,4.3c-0.6-3.1-0.8-6.2-0.8-9.3
		c0.1-30.9,25.2-56,56.1-55.9C438,376.1,457.9,388.9,467,408.9L467,408.9z"/>
	<path class="st2" d="M466.1,457c-9.4,19-28.8,31.1-50.1,31c-8.3,0-16.5-1.8-24-5.4l25-14.3l8-24l16,8L466.1,457z"/>
	<path class="st3" d="M388.5,173.5c-16.4,2.9-36.4,3.1-59.5,12.8c-36.7,15.4-27.6,38.5-64.4,38.5c-54-0.4-107.9,5.8-160.4,18.4
		c0.2-10.6,1.6-21.1,4.2-31.4c25.8-5.8,54.2-17.8,101.1-17.8c36.7,0,27.6-38.5,73.5-38.5c26-1.4,51.4-8.6,74.3-21
		c10.5,9.4,19.6,20.2,27.1,32.2C385.8,169,387.2,171.3,388.5,173.5L388.5,173.5z"/>
	<path class="st3" d="M408,248c0,1.4,0,2.6-0.1,4c-0.1,1.2-0.1,2.3-0.2,3.5c-18.8,1.1-36.8,8.4-51,20.9
		c-36.1,34.4-44.2,25.8-90.2,25.8c-54.2,0-45.2,25.8-72.2,25.8c-29.4,0-47-11.6-71.2-6.6c-1-1.7-1.9-3.4-2.8-5.1
		c-4.3-8.5-7.9-17.4-10.5-26.6c48.1-13.3,97.7-20.7,147.7-21.9c90.3,0,54.2-51.5,117.4-51.5c9.8,0,19.6-0.7,29.4-2.1
		c1.6,7,2.7,14.2,3.3,21.4C407.8,239.7,408,243.8,408,248L408,248z"/>
	<path class="st4" d="M176,152h16v16h-16V152z"/>
	<path class="st4" d="M208,128h16v16h-16V128z"/>
	<path class="st5" d="M488,312c-13.3,0-24-10.7-24-24c0-4.4-3.6-8-8-8s-8,3.6-8,8c0,13.3-10.7,24-24,24c-4.4,0-8,3.6-8,8s3.6,8,8,8
		c13.3,0,24,10.7,24,24c0,4.4,3.6,8,8,8s8-3.6,8-8c0-13.3,10.7-24,24-24c4.4,0,8-3.6,8-8S492.4,312,488,312z M456,328.2
		c-2.3-3.1-5.1-5.9-8.2-8.2c3.1-2.3,5.9-5.1,8.2-8.2c2.3,3.1,5.1,5.9,8.2,8.2C461.1,322.3,458.3,325.1,456,328.2z"/>
	<path class="st5" d="M88,160c-13.3,0-24-10.7-24-24c0-4.4-3.6-8-8-8s-8,3.6-8,8c0,13.3-10.7,24-24,24c-4.4,0-8,3.6-8,8s3.6,8,8,8
		c13.3,0,24,10.7,24,24c0,4.4,3.6,8,8,8s8-3.6,8-8c0-13.3,10.7-24,24-24c4.4,0,8-3.6,8-8S92.4,160,88,160z M56,176.2
		c-2.3-3.1-5.1-5.9-8.2-8.2c3.1-2.3,5.9-5.1,8.2-8.2c2.3,3.1,5.1,5.9,8.2,8.2C61.1,170.3,58.3,173.1,56,176.2z"/>
	<path class="st4" d="M192,344h16v16h-16V344z"/>
	<path class="st4" d="M232,328h16v16h-16V328z"/>
	<g>
		<path class="st6" d="M248,24h16v16h-16V24z"/>
		<path class="st6" d="M248,56h16v16h-16V56z"/>
		<path class="st6" d="M232,40h16v16h-16V40z"/>
		<path class="st6" d="M264,40h16v16h-16V40z"/>
		<path class="st6" d="M232,424h16v16h-16V424z"/>
		<path class="st6" d="M232,456h16v16h-16V456z"/>
		<path class="st6" d="M216,440h16v16h-16V440z"/>
		<path class="st6" d="M248,440h16v16h-16V440z"/>
	</g>
	<path class="st7" d="M176,48h16v16h-16V48z"/>
	<path class="st7" d="M328,72h16v16h-16V72z"/>
	<path class="st7" d="M152,440h16v16h-16V440z"/>
	<path class="st7" d="M296,464h16v16h-16V464z"/>
	<path class="st8" d="M407.6,258.6c-28.2,30.3-60.1,56.8-95,79c-33,21.5-68,39.8-104.5,54.6c-16.1,6.5-32.5,12.1-49.3,16.6
		c-17.3,4.9-35.1,7.6-53,8c-24.7,0-42.2-7.2-51.4-21.3c-20.3-31.5,10.2-89,50.2-133.4c0.5,6.5,1.6,13,3.1,19.4
		C72,324.3,54.6,368.2,67.1,387.4c10.6,16.4,42.6,18.9,88,7c10.6-2.7,21.5-6.2,32.9-10.4c40.9-15.3,79.9-35,116.5-58.9
		c38.5-24.7,73.2-54.8,103-89.5c35-41.8,51.4-81.3,37.4-102.8c-11.7-18-54.2-11.5-92.2-2.1c-1.6-1.3-3.2-2.6-4.9-3.8
		c-3.5-2.6-7.1-5.2-10.9-7.5c52.8-14.2,102.6-22.3,120.6,5.3C475.2,151.9,457.4,204,407.6,258.6L407.6,258.6z"/>
	<path class="st8" d="M135.8,67.4c-0.9-0.6-1.8-1.4-2.8-2l-9.2,13.1c3,2.2,5.6,4.1,7.6,5.8c3.7,3.2,5.6,5.8,5.8,7.6
		c-3.1,0-6.3-0.4-9.3-1.3c-15.3-4.3-30-10.2-43.9-17.8l-4.2-2.2C67.4,64.5,51.9,56.8,42,50.4c-2.7-1.6-5.3-3.5-7.7-5.6
		c2.1,0.1,5,0.3,9.3,0.9c3,0.5,6.6,1.2,11.1,2.2l3.4-15.7c-1.8-0.4-3.4-0.7-5-1C31,26.8,20.5,28.6,17,37c-4.6,11.3,5,20.6,23.2,31.1
		c8.9,5.2,19.9,10.7,32.3,17l4.3,2.1c12.3,6.4,25,11.9,38.2,16.5c6.8,2.6,13.9,4.1,21.2,4.4c2.6,0,5.1-0.4,7.5-1.3
		c3.7-1.3,6.6-4.1,8.1-7.7C157.1,86.1,147.7,76.2,135.8,67.4z"/>
	<path class="st9" d="M76.9,87.1c12.3,6.4,25,11.9,38.2,16.5c-7.9,5.5-17.4,8.4-27,8.4c-24.9,0-45.7-19.1-47.8-43.9
		c8.9,5.2,19.9,10.7,32.3,17L76.9,87.1z"/>
	<path class="st9" d="M136,64c0,1.2-0.1,2.3-0.2,3.4c-0.4,5.9-1.9,11.6-4.4,16.9c-1,2.2-2.1,4.3-3.5,6.3
		c-15.3-4.3-30-10.2-43.9-17.8l-4.2-2.2C67.4,64.5,51.9,56.8,42,50.4c0.4-1.6,0.9-3.2,1.6-4.7c2.2-5.4,5.5-10.3,9.5-14.6
		c18.1-19.3,48.5-20.3,67.8-2.1C130.5,38.1,136,50.7,136,64z"/>
</g>
</svg>
