<svg height="512" viewBox="0 0 64 64" width="512" xmlns="http://www.w3.org/2000/svg"><g id="flat"><path d="m58.575 36.79a27.021 27.021 0 0 0 -4.6-20.461 1.58 1.58 0 0 0 .518-.342c1.172-1.172.845-2.644-1.5-4.987s-5.816-4.67-6.987-3.5a1.8 1.8 0 0 0 -.487 1.134 26.867 26.867 0 0 0 -13.519-3.634 27.552 27.552 0 0 0 -21 10c-.9-2.169-4.49-1.266-6 1-1.527 2.291.983 5.494 2 7a30.63 30.63 0 0 0 -2 8c-1.01 2.139-2 4.485-2 6 0 2.613 1.162 5.815 4 4 3.753 10.4 13.306 18 25 18a26.9 26.9 0 0 0 11.63-2.628 1.414 1.414 0 0 0 .2.455c.916 1.265 3.484.116 6.168-1.827s4.468-3.945 3.552-5.21a1.563 1.563 0 0 0 -.794-.527 37.515 37.515 0 0 0 2.244-3.263 4.187 4.187 0 0 0 6-4 6.035 6.035 0 0 0 -2.425-5.21z" fill="#d3843d"/><path d="m9.293 21.707c-1.458-1.458-2.1-2.784-1.914-3.942a2.3 2.3 0 0 1 1.174-1.66l.894 1.79-.447-.895.484.875a.307.307 0 0 0 -.134.232c-.019.176.022.851 1.357 2.186z" fill="#ad6327"/><path d="m57.707 43.707-1.414-1.414a.46.46 0 0 0 .175-.427c-.111-.9-1.845-2.326-2.983-3.009a1 1 0 0 1 -.38-1.3 12.442 12.442 0 0 0 .895-4.557h2a15.627 15.627 0 0 1 -.754 4.618c1.123.781 3 2.321 3.207 4a2.446 2.446 0 0 1 -.746 2.089z" fill="#ad6327"/><circle cx="23" cy="24" fill="#66342e" r="8"/><ellipse cx="15.5" cy="42.5" fill="#66342e" rx="1.961" ry="2.941" transform="matrix(.707 -.707 .707 .707 -25.512 23.408)"/><circle cx="29" cy="47" fill="#66342e" r="4"/><ellipse cx="46.5" cy="47.5" fill="#66342e" rx="2.941" ry="1.961" transform="matrix(.707 -.707 .707 .707 -19.968 46.793)"/><ellipse cx="47" cy="18" fill="#66342e" rx="2.91" ry="4.85" transform="matrix(.707 -.707 .707 .707 1.038 38.506)"/><g fill="#ad6327"><path d="m21.479 12.674-.958-1.756a24.328 24.328 0 0 1 18.779-1.785l-.608 1.9a22.307 22.307 0 0 0 -17.213 1.641z"/><path d="m8.825 38.26a24.145 24.145 0 0 1 .307-13.56l1.905.608a22.151 22.151 0 0 0 -.281 12.436z"/><path d="m32 56a24.1 24.1 0 0 1 -6.26-.824l.52-1.932a22.292 22.292 0 0 0 16.261-1.918l.958 1.756a24.037 24.037 0 0 1 -11.479 2.918z"/><path d="m16.882 12.5h2.236v2h-2.236z" transform="matrix(.894 -.447 .447 .894 -4.137 9.475)"/><path d="m21 51.382h2v2.236h-2z" transform="matrix(.447 -.894 .894 .447 -34.796 48.699)"/><path d="m54 29h2v2h-2z"/><path d="m52 41h2v2h-2z"/><path d="m30.64 33.769-1.28-1.538a10.9 10.9 0 0 0 3.678-10.959l1.923-.546a12.9 12.9 0 0 1 -4.321 13.043z"/><path d="m22.867 44.5-1.735-1a11.016 11.016 0 0 1 3.188-3.336c1.945-1.3 5.117-2.356 9.176-.036l-.996 1.74c-6.025-3.443-9.488 2.382-9.633 2.632z"/><path d="m49.188 26.36c-3.237 0-6.324-2.083-7.9-3.653l1.413-1.415c.22.219 5.431 5.315 9.669 1.927l1.25 1.562a6.943 6.943 0 0 1 -4.432 1.579z"/><path d="m41.9 46.447-1.79-.894a8.385 8.385 0 0 1 10.211-4.5l-.628 1.9a6.438 6.438 0 0 0 -7.793 3.494z"/><path d="m40.379 30.5h4.243v2h-4.243z" transform="matrix(.707 -.707 .707 .707 -9.826 39.278)"/><path d="m41.379 34.5h4.243v2h-4.243z" transform="matrix(.707 -.707 .707 .707 -12.361 41.157)"/><path d="m13 32.586h2v2.828h-2z" transform="matrix(.707 -.707 .707 .707 -19.941 19.858)"/><path d="m32.586 13h2.828v2h-2.828z" transform="matrix(.707 -.707 .707 .707 .059 28.142)"/><path d="m35.586 14h2.828v2h-2.828z" transform="matrix(.707 -.707 .707 .707 .23 30.556)"/></g></g></svg>