<svg xmlns="http://www.w3.org/2000/svg" width="261.21" height="260.836" viewBox="0 0 261.21 260.836">
  <g id="_005---Astronaut" data-name="005---Astronaut" transform="matrix(0.951, -0.309, 0.309, 0.951, -22.044, 53.082)">
    <path id="Shape" d="M22.716,65.877,19.28,40.126,28.926,23.11l57.961,8.28A199.958,199.958,0,0,1,97.445,51.635Z" transform="translate(51.121 72.568)" fill="#a26bae"/>
    <path id="Shape-2" data-name="Shape" d="M84.632,107.643a49.681,49.681,0,0,0,49.35-55.394l-2.65-22.936A33.121,33.121,0,0,0,98.211,0h-48.4A33.121,33.121,0,0,0,16.941,29.312L14.25,52.248A49.681,49.681,0,0,0,36.524,99.611C55.858,108.429,50.269,107.643,84.632,107.643Z" transform="translate(34.291 0)" fill="#ae73ba"/>
    <path id="Shape-3" data-name="Shape" d="M51,78.522a33.121,33.121,0,0,1-32.831-36.93l2.65-22.936A16.56,16.56,0,0,1,37.211,4h48.6a16.56,16.56,0,0,1,16.56,14.656l2.732,22.936a33.121,33.121,0,0,1-33.121,36.93Z" transform="translate(46.935 12.561)" fill="#02021e"/>
    <path id="Shape-4" data-name="Shape" d="M26.567,14.28a4.14,4.14,0,1,1,4.14-3.312,4.14,4.14,0,0,1-4.14,3.312Z" transform="translate(61.263 18.842)" fill="#fff"/>
    <path id="Shape-5" data-name="Shape" d="M55.471,14.28H30.63a4.14,4.14,0,1,1,0-8.28H55.471a4.14,4.14,0,1,1,0,8.28Z" transform="translate(73.761 18.841)" fill="#fff"/>
    <path id="Shape-6" data-name="Shape" d="M51.168,48a129.088,129.088,0,0,0-1.987,30.637,10.019,10.019,0,0,1-18.92,5.175A126.48,126.48,0,0,1,19,48Z" transform="translate(50.241 150.725)" fill="#9b63a6"/>
    <path id="Shape-7" data-name="Shape" d="M62.461,48A124.782,124.782,0,0,1,51.076,83.812a10.019,10.019,0,0,1-18.92-5.631A120.394,120.394,0,0,0,30.21,48Z" transform="translate(85.442 150.725)" fill="#9c63a6"/>
    <path id="Shape-8" data-name="Shape" d="M160.323,45.7a4.14,4.14,0,0,0,4.14-4.14V29.136a4.14,4.14,0,0,1,6.873-3.105l52.579,50.882a8.28,8.28,0,0,1,0,12.089l-52.579,50.882a4.14,4.14,0,0,1-6.873-3.105v-12.42a4.14,4.14,0,0,0-4.14-4.14H11.28A8.28,8.28,0,0,1,3,111.938V53.977a8.28,8.28,0,0,1,8.28-8.28Z" transform="translate(0 78.507)" fill="#c9203d"/>
    <path id="Shape-9" data-name="Shape" d="M23.655,94.4a12.42,12.42,0,0,1-12.42-10.681L7.095,54.736a12.42,12.42,0,0,1,7.7-13.29l41.4-16.56a12.439,12.439,0,1,1,9.232,23.1L33.094,60.9l2.981,19.334A12.42,12.42,0,0,1,23.655,94.4Z" transform="translate(12.466 75.346)" fill="#bda1c7"/>
    <g id="组_7" data-name="组 7" transform="translate(3 12.421)">
      <path id="Shape-10" data-name="Shape" d="M55.14,27.841A4.14,4.14,0,0,1,51,23.7V7.14a4.14,4.14,0,1,1,8.28,0V23.7A4.14,4.14,0,0,1,55.14,27.841Z" transform="translate(147.724 -3)" fill="#f0c419"/>
      <path id="Shape-11" data-name="Shape" d="M69.7,13.28H53.14a4.14,4.14,0,0,1,0-8.28H69.7a4.14,4.14,0,1,1,0,8.28Z" transform="translate(141.444 3.28)" fill="#f0c419"/>
      <path id="Shape-12" data-name="Shape" d="M9.14,37.841A4.14,4.14,0,0,1,5,33.7V17.14a4.14,4.14,0,0,1,8.28,0V33.7A4.14,4.14,0,0,1,9.14,37.841Z" transform="translate(3.28 28.401)" fill="#f0c419"/>
      <path id="Shape-13" data-name="Shape" d="M23.7,23.28H7.14a4.14,4.14,0,1,1,0-8.28H23.7a4.14,4.14,0,1,1,0,8.28Z" transform="translate(-3 34.681)" fill="#f0c419"/>
    </g>
    <path id="Shape-14" data-name="Shape" d="M27.7,51.28H11.14a4.14,4.14,0,0,1,0-8.28H27.7a4.14,4.14,0,0,1,0,8.28Z" transform="translate(12.56 135.024)" fill="#f38d8c"/>
    <path id="Shape-15" data-name="Shape" d="M119.5,51.28H20.14a4.14,4.14,0,0,1,0-8.28H119.5a4.14,4.14,0,0,1,0,8.28Z" transform="translate(40.821 135.024)" fill="#f38d8c"/>
  </g>
</svg>
