<?xml version="1.0" encoding="utf-8"?>
<!-- Generator: Adobe Illustrator 25.2.3, SVG Export Plug-In . SVG Version: 6.00 Build 0)  -->
<svg version="1.1" id="圖層_1" xmlns="http://www.w3.org/2000/svg" xmlns:xlink="http://www.w3.org/1999/xlink" x="0px" y="0px"
	 viewBox="0 0 512 512" style="enable-background:new 0 0 512 512;" xml:space="preserve">
<style type="text/css">
	.st0{fill:#26B99A;}
	.st1{fill:#547580;}
	.st2{fill:#2C3E50;}
	.st3{fill:#E57E25;}
	.st4{fill:#35495E;}
	.st5{fill:#F29C1F;}
	.st6{fill:#F0C419;}
</style>
<g id="_x30_18---Astronaut">
	<path id="Shape" class="st0" d="M150.1,92.7l-86.4,0c-1.8,0-3.4-1.1-4.1-2.7c-0.7-1.6-0.3-3.5,0.9-4.8l24.7-24.7
		c1.7-1.7,1.7-4.5,0-6.2L60.5,29.6c-1.2-1.3-1.6-3.2-0.9-4.8c0.7-1.6,2.3-2.7,4.1-2.7l86.4,0V92.7z"/>
	<path id="Shape_1_" class="st1" d="M150.1,136.8c-4.9,0-8.8-4-8.8-8.8V22.1c0-4.9,4-8.8,8.8-8.8s8.8,4,8.8,8.8V128
		C158.9,132.9,154.9,136.8,150.1,136.8z"/>
	<path id="Shape_2_" class="st2" d="M401,277.2c46.5,34.3,81.2,83.5,45.1,126.9c-31.9,38.1-74.9,35.3-112.1,3.3l20.4-29.2
		c10.1,10.3,23.4,16.8,37.7,18.4c10.7-0.8,20.4-6.3,26.5-15.1c5.3-5.6,7.6-13.4,6.3-21c-2.7-17.6-27.6-42.2-45.3-56L401,277.2z"/>
	<path id="Shape_3_" class="st3" d="M175.5,363.1c-19.3-8.8-57.1-15-100.5,12.1l-9.4,5.6c-6.3,3.8-14,4.8-21,2.7
		c-7.1-2.1-13-7-16.3-13.6L3.3,320c-2.2-4.4-2.4-9.6-0.6-14.2c1.8-4.6,5.4-8.3,10.1-10.1c39.7-14.7,53.5,26.5,53.5,26.5
		c34.9-31.6,83.3-43.7,129.1-32.3l7.8,67.6L175.5,363.1z"/>
	<path id="Shape_4_" class="st4" d="M291.3,397.1l20,10.1c6.4,3.2,13.9,3.7,20.6,1.3c6.8-2.4,12.3-7.4,15.3-13.9l82.7-180
		c3-6.5,3.2-13.9,0.6-20.5c-2.6-6.6-7.7-12-14.2-14.8l-36.8-15.9L291.3,397.1z"/>
	<path id="Shape_5_" class="st3" d="M264.8,181l-65,13.8l-26.5-52.1c-6.9-12.3-22.3-17-34.9-10.7s-18.1,21.4-12.4,34.3l35.3,70.6
		c4.5,9.1,13.9,14.8,24,14.7c9.2-0.9,18.3-2.7,27.2-5.4L264.8,181z"/>
	<path id="Shape_6_" class="st5" d="M378,195.4c1.1,0.7-2.9-2.6,26.5,21.6c6.1,5.2,14.2,7.3,22,5.6c2.3,0,6.3-2.1,46.6-20.7
		c12.8-6.5,28.3-1.6,35.2,10.9c6.9,12.5,2.5,28.3-9.8,35.5L459,266.4c-28.4,15.4-63.3,12.2-88.3-8.3c-19.2,21-39.7,50.2-44.1,81.7
		c-5.1,35.9-22.2,50.9-35.3,57.2c-5.5,2.7-11.5,4.2-17.7,4.6c0,0-75,0-97.1,61.8l-4.3,10.1c-2.9,6.8-8.6,12-15.5,14.5
		s-14.7,1.9-21.2-1.6l-49.4-26.5c-4.4-2.3-7.6-6.3-8.8-11.1s-0.5-9.9,2.2-14c24.1-38,61.8-6.6,61.8-6.6c8.8-53,43.5-72.7,43.5-72.7
		c-1.4-56.4,30.6-123,61.8-170.1L378,195.4z"/>
	<path id="Shape_7_" class="st3" d="M414.9,119.2c0,53.6-43.5,97.1-97.1,97.1s-97.1-43.5-97.1-97.1s43.5-97.1,97.1-97.1
		S414.9,65.5,414.9,119.2z"/>
	<path id="Shape_8_" class="st5" d="M414.9,110.3c-4.8,49.8-46.6,87.9-96.7,87.9s-91.9-38-96.7-87.9c4.8-49.8,46.6-87.9,96.7-87.9
		S410.1,60.5,414.9,110.3z"/>
	<g>
		<path id="Shape_9_" class="st6" d="M53,225.1c-4.9,0-8.8-4-8.8-8.8V181c0-4.9,4-8.8,8.8-8.8s8.8,4,8.8,8.8v35.3
			C61.8,221.2,57.8,225.1,53,225.1z"/>
		<path id="Shape_10_" class="st6" d="M70.6,207.4H35.3c-4.9,0-8.8-4-8.8-8.8c0-4.9,4-8.8,8.8-8.8h35.3c4.9,0,8.8,4,8.8,8.8
			C79.4,203.5,75.5,207.4,70.6,207.4z"/>
		<path id="Shape_11_" class="st6" d="M273.7,498.8c-4.9,0-8.8-4-8.8-8.8v-35.3c0-4.9,4-8.8,8.8-8.8s8.8,4,8.8,8.8v35.3
			C282.5,494.8,278.5,498.8,273.7,498.8z"/>
		<path id="Shape_12_" class="st6" d="M291.3,481.1H256c-4.9,0-8.8-4-8.8-8.8s4-8.8,8.8-8.8h35.3c4.9,0,8.8,4,8.8,8.8
			S296.2,481.1,291.3,481.1z"/>
		<path id="Shape_13_" class="st6" d="M459,66.2c-4.9,0-8.8-4-8.8-8.8V22.1c0-4.9,4-8.8,8.8-8.8s8.8,4,8.8,8.8v35.3
			C467.9,62.3,463.9,66.2,459,66.2z"/>
		<path id="Shape_14_" class="st6" d="M476.7,48.6h-35.3c-4.9,0-8.8-4-8.8-8.8s4-8.8,8.8-8.8h35.3c4.9,0,8.8,4,8.8,8.8
			S481.6,48.6,476.7,48.6z"/>
	</g>
	<path id="Shape_15_" class="st4" d="M370.8,119.2c0,52.5-83.6,81-137.8,47.2c-16.3-29.4-16.3-65.1,0-94.5
		C286.5,38.2,370.8,66.2,370.8,119.2z"/>
	<path id="Shape_16_" class="st1" d="M247.2,128c-4.9,0-8.8-4-8.8-8.8c0-35.3,34.6-44.1,53-44.1c4.9,0,8.8,4,8.8,8.8
		c0,4.9-4,8.8-8.8,8.8c-1.6,0-35.3,0.5-35.3,26.5C256,124,252,128,247.2,128z"/>
	<path id="Shape_17_" class="st2" d="M370.8,119.2c0,52.5-83.6,81-137.8,47.2c-5.4-9.6-9.1-20.1-10.9-31
		c32.5,13.9,88.3,22.2,138.1-46.4C366.9,97.6,370.6,108.2,370.8,119.2z"/>
	<path id="Shape_18_" class="st2" d="M87.6,368.1c-6.4,3.3-7.8,4.1-21.9,12.7c-6.3,3.8-14,4.8-21,2.7c-7.1-2.1-13-7-16.3-13.6
		L3.3,320c-2.2-4.4-2.4-9.6-0.6-14.2c1.8-4.6,5.4-8.3,10.1-10.1c39.7-14.7,53.5,26.5,53.5,26.5L87.6,368.1z"/>
	<path id="Shape_19_" class="st4" d="M182,451.4c-3.1,5.5-3.1,6.7-9.7,21.9c-2.9,6.8-8.6,12-15.5,14.5s-14.7,1.9-21.2-1.6
		l-49.4-26.5c-4.3-2.3-7.5-6.3-8.8-11c-1.3-4.7-0.5-9.8,2-13.9c24.1-38,61.8-6.6,61.8-6.6L182,451.4z"/>
</g>
</svg>
