<svg height="512" viewBox="0 0 64 64" width="512" xmlns="http://www.w3.org/2000/svg"><g id="flat"><path d="m23 23-4-7 7-5h11l8 5-4 7-5-2h-8z" fill="#4f83d1"/><path d="m26 17.991h2v6.325h-2z" fill="#f4f4e6" transform="matrix(.949 -.316 .316 .949 -5.304 9.624)"/><path d="m33.838 20.178h6.325v2h-6.325z" fill="#f4f4e6" transform="matrix(.316 -.949 .949 .316 5.209 49.583)"/><path d="m36 21 5 2v22l-5-2z" fill="#4da6ea"/><path d="m28 21h8v22h-8z" fill="#fcf05a"/><path d="m28 43-5 2v-22l5-2z" fill="#4da6ea"/><path d="m23 45 5-2h8l5 2-5 3h-8z" fill="#195c85"/><path d="m23 45 5-2v-5l-5 2z" fill="#4f83d1"/><path d="m41 45-5-2v-5l5 2z" fill="#4f83d1"/><path d="m28 38h8v5h-8z" fill="#f9bb4b"/><path d="m31 28h2v2h-2z" fill="#8ec13f"/><path d="m31 24h2v2h-2z" fill="#8ec13f"/><path d="m3 24h8v20h-8z" fill="#4f83d1"/><path d="m11 24h8v20h-8z" fill="#32b1cc"/><path d="m19 31h4v6h-4z" fill="#f9bb4b"/><g fill="#fcf05a"><path d="m6 27h2v2h-2z"/><path d="m6 31h2v2h-2z"/><path d="m6 35h2v2h-2z"/><path d="m6 39h2v2h-2z"/><path d="m14 27h2v2h-2z"/><path d="m14 31h2v2h-2z"/><path d="m14 35h2v2h-2z"/><path d="m14 39h2v2h-2z"/></g><path d="m53 24h8v20h-8z" fill="#4f83d1" transform="matrix(-1 0 0 -1 114 68)"/><path d="m45 24h8v20h-8z" fill="#32b1cc" transform="matrix(-1 0 0 -1 98 68)"/><path d="m41 31h4v6h-4z" fill="#f9bb4b" transform="matrix(-1 0 0 -1 86 68)"/><path d="m56 39h2v2h-2z" fill="#fcf05a"/><path d="m56 35h2v2h-2z" fill="#fcf05a"/><path d="m56 31h2v2h-2z" fill="#fcf05a"/><path d="m56 27h2v2h-2z" fill="#fcf05a"/><path d="m48 39h2v2h-2z" fill="#fcf05a"/><path d="m48 35h2v2h-2z" fill="#fcf05a"/><path d="m48 31h2v2h-2z" fill="#fcf05a"/><path d="m48 27h2v2h-2z" fill="#fcf05a"/><path d="m11 14h2v2h-2z" fill="#d9176c"/><path d="m11 18h2v2h-2z" fill="#d9176c"/><path d="m9 16h2v2h-2z" fill="#d9176c"/><path d="m13 16h2v2h-2z" fill="#d9176c"/><path d="m44 47h2v2h-2z" fill="#d9176c"/><path d="m44 51h2v2h-2z" fill="#d9176c"/><path d="m42 49h2v2h-2z" fill="#d9176c"/><path d="m46 49h2v2h-2z" fill="#d9176c"/></g></svg>