<?xml version="1.0" encoding="utf-8"?>
<!-- Generator: Adobe Illustrator 25.2.3, SVG Export Plug-In . SVG Version: 6.00 Build 0)  -->
<svg version="1.1" id="圖層_1" xmlns="http://www.w3.org/2000/svg" xmlns:xlink="http://www.w3.org/1999/xlink" x="0px" y="0px"
	 viewBox="0 0 512 512" style="enable-background:new 0 0 512 512;" xml:space="preserve">
<style type="text/css">
	.st0{fill:#2E004C;}
	.st1{fill:#4A0072;}
	.st2{fill:#AE52D4;}
	.st3{fill:#7F2BC1;}
	.st4{fill:#F0C419;}
	.st5{fill:#F29C1F;}
	.st6{fill:#F9EAB0;}
</style>
<g id="_x30_08---Astronaut">
	<path id="Shape_1_" class="st0" d="M324.2,418.1c0.3,12.2,6.5,23.5,16.7,30.3c10.2,6.8,23.1,8.2,34.5,3.8
		c25.6-8.5,17.1-59.7,17.1-59.7L324.2,418.1z"/>
	<path id="Shape_2_" class="st0" d="M298.6,435.9c2.4,6.2,19.4,58.7-25.6,66.6c-47.9,8.4-51.2-58.8-51.2-58.8L298.6,435.9z"/>
	<path id="Shape_4_" class="st1" d="M216.1,317.1l143.8-32.3c9.8,21,39.8,85.6,32.5,107.7c-8.6,25.6-51.2,34.1-68.3,25.6
		c-10.5-6.3-19.3-15.1-25.6-25.6c1,14.4,1,28.9,0,43.3c0-2.9-0.8,17.3-8.5,25c-10.4,9.5-25,13.2-38.7,9.8
		c-13.7-3.4-24.8-13.5-29.5-26.9c-6.4-16.3-9.3-33.7-8.5-51.2C213.3,370.5,213.3,339.4,216.1,317.1z"/>
	<path id="Shape_5_" class="st2" d="M216.8,311.2L360,285.1c1.7,4.3,3.7,8.5,5.9,12.6c-19.9,17.9-44,30.6-70,36.7
		c-26.7,6.9-54.9,5.6-80.9-3.8C215.4,325.5,216.4,315,216.8,311.2z"/>
	<path id="Shape_11_" class="st3" d="M213.3,247.5l0-76.7l-35.2,2c-18.9,44.6-47,122.7-43.7,170.7c1.4,12,11,21.4,23,22.5
		s23.2-6.3,26.8-17.8L213.3,247.5L213.3,247.5z"/>
	<path id="Shape_12_" class="st3" d="M112.5,113.2c-3.1-50.4,29.1-99.8,81-104.2c37.4-3.3,76.8,13.5,93.9,48.7
		c5.2,11,8.8,22.6,10.8,34.6c1.4,4.9,2.1,10,2,15.1c14.8-19,22.3-42.6,21-66.6c-0.1-13.7,10.3-25.1,23.9-26.4
		c13.6-1.3,26,8,28.4,21.5c11.1,71.9-30.9,148.7-30.9,148.7C359,216.1,365,251.9,359.7,287c-21.8,18.5-48.4,30.4-76.8,34.1
		c-23.6,4-47.8,1.8-70.3-6.3c-5.7-2-11.2-4.5-16.4-7.6V153.6C196,151.8,112.5,115.1,112.5,113.2L112.5,113.2z"/>
	<g>
		<path id="Shape_13_" class="st4" d="M469.3,76.8V42.7c0-4.7,3.8-8.5,8.5-8.5c4.7,0,8.5,3.8,8.5,8.5v34.1c0,4.7-3.8,8.5-8.5,8.5
			C473.1,85.3,469.3,81.5,469.3,76.8z"/>
		<path id="Shape_14_" class="st4" d="M452.3,59.8c0-4.7,3.8-8.5,8.5-8.5h34.1c4.7,0,8.5,3.8,8.5,8.5s-3.8,8.5-8.5,8.5h-34.1
			C456.1,68.3,452.3,64.5,452.3,59.8z"/>
		<path id="Shape_15_" class="st4" d="M34.1,76.8V42.7c0-4.7,3.8-8.5,8.5-8.5s8.5,3.8,8.5,8.5v34.1c0,4.7-3.8,8.5-8.5,8.5
			S34.1,81.5,34.1,76.8z"/>
		<path id="Shape_16_" class="st4" d="M17.1,59.8c0-4.7,3.8-8.5,8.5-8.5h34.1c4.7,0,8.5,3.8,8.5,8.5s-3.8,8.5-8.5,8.5H25.6
			C20.9,68.3,17.1,64.5,17.1,59.8z"/>
		<path id="Shape_17_" class="st4" d="M418.1,239v-34.1c0-4.7,3.8-8.5,8.5-8.5c4.7,0,8.5,3.8,8.5,8.5V239c0,4.7-3.8,8.5-8.5,8.5
			C421.9,247.5,418.1,243.6,418.1,239z"/>
		<path id="Shape_18_" class="st4" d="M401.1,221.9c0-4.7,3.8-8.5,8.5-8.5h34.1c4.7,0,8.5,3.8,8.5,8.5s-3.8,8.5-8.5,8.5h-34.1
			C404.9,230.4,401.1,226.6,401.1,221.9z"/>
	</g>
	<path id="Shape_19_" class="st5" d="M171.8,42.7c49.2-13.1,95,18,93,61.7c-1.2,29.5-25,57.3-59.1,66.3
		c-40.9,10.8-81.8-8.6-91.2-44.4C105.4,91.8,130.1,53.6,171.8,42.7z"/>
	<path id="Shape_20_" class="st4" d="M264.5,104.4c-11.2,13-26.1,22.3-42.7,26.6c-49.6,13.3-95.1-18.8-93.1-61.5
		C173.1,16.2,267.7,38.6,264.5,104.4z"/>
	<path id="Shape_21_" class="st2" d="M234.9,294.6c-4.7,0-8.5-3.8-8.5-8.5s3.8-8.5,8.5-8.5c15.1-0.2,30.2-1.6,45-4.4
		c3-0.6,6.2,0.5,8.2,2.8c2.1,2.3,2.8,5.6,1.7,8.5s-3.6,5.1-6.6,5.7c-15.8,3.1-31.9,4.8-48.1,5L234.9,294.6z"/>
	<path id="Shape_22_" class="st2" d="M307.3,273.2c-0.9-3.9,1-7.9,4.6-9.6c4.1-1.8,7.8-4.2,11.2-7.1c3.3-3.4,8.7-3.5,12.1-0.2
		s3.5,8.7,0.2,12.1c-5.6,5.2-12.3,9.1-19.7,11.3C311.7,279.7,308.2,277.1,307.3,273.2z"/>
	<path id="Shape_23_" class="st2" d="M198.1,209.1c-4.7,0.2-8.8-3.4-9-8.1s3.4-8.7,8.1-9c69.1-4,82.3-49.2,82.8-51.2
		c1.2-4.5,5.8-7.3,10.4-6.1c4.5,1.2,7.3,5.8,6.1,10.4c-0.7,2.4-16.3,59.2-98.4,63.7V209.1z"/>
	<path id="Shape_24_" class="st4" d="M262.5,216.2c2.5-0.6,5.2,0,7.3,1.6c2.1,1.6,3.3,4.1,3.3,6.7v16.8c0.1,4-2.6,7.5-6.5,8.5
		l-17.1,4.3c-2.6,0.7-5.3,0.1-7.4-1.6s-3.3-4.2-3.2-6.9V229c-0.1-4,2.6-7.5,6.5-8.5L262.5,216.2L262.5,216.2z"/>
	<path id="Shape_25_" class="st6" d="M221.8,102.3c0-25-32.6-25.6-34.1-25.6c-4.7,0-8.5-3.8-8.5-8.5s3.8-8.5,8.5-8.5
		c17.7,0,51.2,9,51.2,42.7c0,4.7-3.8,8.5-8.5,8.5C225.7,110.9,221.8,107.1,221.8,102.3z"/>
	<path id="Shape_26_" class="st0" d="M213.3,248.1l-0.7,66.7c-5.7-2-11.2-4.5-16.4-7.6C196.2,306.3,195.3,310.1,213.3,248.1z"/>
</g>
</svg>
