<svg xmlns="http://www.w3.org/2000/svg" width="242.688" height="262.449" viewBox="0 0 242.688 262.449">
  <g id="bg-dec" transform="translate(-2.629 -1.568)">
    <g id="_012---Astronaut-with-Flag" data-name="012---Astronaut-with-Flag" transform="matrix(1, 0.017, -0.017, 1, 4.548, 0)">
      <path id="Shape" d="M31.273,10.874l-3.55,42.821A11.952,11.952,0,0,1,23.814,61.6,12.132,12.132,0,0,1,3.55,53.515L0,0Z" transform="translate(136.821 195.818)" fill="#b65de4"/>
      <path id="Shape-2" data-name="Shape" d="M31.228,0l-3.5,52.8a12.132,12.132,0,0,1-24.174,0L0,10.155Z" transform="translate(177.081 196.537)" fill="#b65de4"/>
      <path id="Shape-3" data-name="Shape" d="M0,0,31.453,10.874l-.719,8.987a53.156,53.156,0,0,1-29.3-9.616C.359,9.346.719,10.874,0,0Z" transform="translate(136.821 195.818)" fill="#9c63a6"/>
      <path id="Shape-4" data-name="Shape" d="M31.228,0,30.6,9.481A53.38,53.38,0,0,1,1.438,19.141H.719L0,10.155Z" transform="translate(177.081 196.537)" fill="#9c63a6"/>
      <path id="Shape-5" data-name="Shape" d="M94.389,40.44,92.322,70.814a29.926,29.926,0,0,1-9.8,13.48l-.4.359C58.578,102.627-11.428,99.437,1.6,46.1L9.017,17.973,26.99,0,76.416,4.493Z" transform="translate(125.782 112.332)" fill="#e5abef"/>
      <path id="Shape-6" data-name="Shape" d="M71.38,23.455H14.405A30.105,30.105,0,0,1,7.89,20.8C-2.849,15.053-2.669,4.763,8.7,0H77C89.218,5.032,89.8,18.108,71.38,23.455Z" transform="translate(129.695 104.289)" fill="#e5abef"/>
      <path id="Shape-7" data-name="Shape" d="M22.466,4.493V13.48a4.493,4.493,0,0,1-4.493,4.493H4.493A4.493,4.493,0,0,1,0,13.48V4.493A4.493,4.493,0,0,1,4.493,0h13.48A4.493,4.493,0,0,1,22.466,4.493Z" transform="translate(172.587 143.785)" fill="#35495e"/>
      <path id="Shape-8" data-name="Shape" d="M82.266,1.752l-13.48,26.96L56.879,38.777,51.442,43.27A13.48,13.48,0,0,1,39.355,46.1c-2.2-.584.809,1.078-34.419-21.478A13.48,13.48,0,0,1,19.36,2.067L41.826,16.445,60.878,0Z" transform="translate(70.506 119.567)" fill="#e5abef"/>
      <path id="Shape-9" data-name="Shape" d="M14.019,26.96,11.952,57.334A29.072,29.072,0,0,1,8.807,63.58a13.48,13.48,0,0,1-5.931-6.246c-.854-1.573-.449.854-2.876-34.419L.539,0Z" transform="translate(206.152 125.812)" fill="#ad52d3"/>
      <path id="Shape-10" data-name="Shape" d="M43,71.77a13.794,13.794,0,0,1-13.48-5.3c-1.078-1.258-.315.854-9.571-33.16L4.493,13.627,0,.147A131.834,131.834,0,0,1,26.016,1.495c4.718.674,11.188,3.64,16.266,13.794A172.136,172.136,0,0,1,53.92,56.178,13.48,13.48,0,0,1,43,71.77Z" transform="translate(188.718 116.679)" fill="#e5abef"/>
      <path id="Shape-11" data-name="Shape" d="M82.9,5.662C60.794,20.579,23.23,21.163,0,5.3A15.951,15.951,0,0,1,7.1,0H75.442A15.457,15.457,0,0,1,82.9,5.662Z" transform="translate(131.249 104.289)" fill="#ad52d3"/>
      <path id="Shape-12" data-name="Shape" d="M26.96,10.29V44.124a13.48,13.48,0,0,1-6.965,0c-2.157-.584-.809,0-20-12.132V0L22.466,14.379Z" transform="translate(89.866 121.633)" fill="#ad52d3"/>
      <path id="Shape-13" data-name="Shape" d="M94.359,0V96.516C90.765,70.814,63.58,63.984,37.744,67.4,3.774,71.893,0,13.48,0,13.48c44.933,13.884,68.433,9.885,80.879,2.741A27.229,27.229,0,0,0,94.359,0Z" transform="translate(0 13.48)" fill="#eec0ff"/>
      <path id="Shape-14" data-name="Shape" d="M17.973,8.987V251.624a8.987,8.987,0,0,1-17.973,0V8.987a8.987,8.987,0,0,1,17.973,0Z" transform="translate(89.866 0)" fill="#547580"/>
      <path id="Shape-15" data-name="Shape" d="M8.987,0V75.173A29.79,29.79,0,0,0,0,65.962V7.549A32.127,32.127,0,0,0,8.987,0Z" transform="translate(80.879 22.152)" fill="#dd83ff"/>
      <path id="Shape-16" data-name="Shape" d="M130.306,58.413c0,33.7-30.869,53.919-65.153,53.919S0,92.068,0,58.413C0,28.038,27.724,0,65.153,0S130.306,28.173,130.306,58.413Z" transform="translate(107.839 0)" fill="#9c63a6"/>
      <path id="Shape-17" data-name="Shape" d="M130.081,53.919C126.756,97.684,68.837,115.163,29.7,95.348A50.954,50.954,0,0,1,0,53.919C2.561,23.725,30.6,0,64.928,0S127.3,23.725,130.081,53.919Z" transform="translate(108.064 0)" fill="#cf93d9"/>
      <path id="Shape-18" data-name="Shape" d="M130.306,32.716c0,17.973-29.161,30.195-65.153,30.195S0,50.779,0,32.716C0,.229,85.642-12.622,120.465,15.417a22.781,22.781,0,0,1,9.84,17.3Z" transform="translate(107.839 26.955)" fill="#2c3e50"/>
      <path id="Shape-19" data-name="Shape" d="M119.432,15.378C109.861,44.494,28.757,48.044,0,26.925,10.469-2.506,87.934-9.965,119.432,15.378Z" transform="translate(108.873 26.994)" fill="#35495e"/>
      <g id="组_10" data-name="组 10" transform="translate(125.786 40.44)">
        <path id="Shape-20" data-name="Shape" d="M4.724,9.616A4.5,4.5,0,1,1,4.274.629C8.768.225,13.261,0,18.2,0a4.493,4.493,0,0,1,0,8.987C9.531,8.987,5.712,9.616,4.724,9.616Z" transform="translate(26.756 0)" fill="#fff"/>
        <path id="Shape-21" data-name="Shape" d="M4.52,13.731A4.493,4.493,0,0,1,1.285,6.093,29.926,29.926,0,0,1,12.024.252a4.5,4.5,0,0,1,2.966,8.492C6.632,11.709,7.755,13.731,4.52,13.731Z" transform="translate(0 4.242)" fill="#fff"/>
      </g>
    </g>
  </g>
</svg>
