<svg id="jupiter" xmlns="http://www.w3.org/2000/svg" width="50.012" height="50.013" viewBox="0 0 50.012 50.013">
  <path id="Path_56" data-name="Path 56" d="M49.222,18.7l-1.491-.818-2.1-4.5.032-2.493A25.01,25.01,0,0,0,4.4,10.846v1.99L2.45,17.685.814,18.7a25.041,25.041,0,0,0-.8,6.305q0,.421.014.84l1.143,2.3L2.6,33.829l-.593.994a25.073,25.073,0,0,0,7.125,9.5l4.052,1.618,9.989,2.387,12.757-1.481,4.959-2.521a25.082,25.082,0,0,0,7.13-9.5l-.165-.488,1.274-6.645.877-1.844c.009-.279.015-.558.015-.84a25.047,25.047,0,0,0-.8-6.306Z" transform="translate(-0.012 0)" fill="#fedbbd"/>
  <g id="Group_174" data-name="Group 174" transform="translate(0 0.001)">
    <path id="Path_57" data-name="Path 57" d="M13.354,25.018A25.015,25.015,0,0,1,31.683.915a25.037,25.037,0,0,0-27.4,10.107l.112,1.826L2.437,17.7.8,18.713A25.045,25.045,0,0,0,0,25.018c0,.281,0,.56.014.839l1.142,2.3,1.436,5.684L2,34.834A25.037,25.037,0,0,0,31.683,49.121,25.016,25.016,0,0,1,13.354,25.018Z" transform="translate(0 -0.012)" fill="#feca9c"/>
    <ellipse id="Ellipse_14" data-name="Ellipse 14" cx="9.063" cy="3.431" rx="9.063" ry="3.431" transform="translate(15.943 5.225)" fill="#e8ad8c"/>
    <path id="Path_58" data-name="Path 58" d="M391.151,133.705c0,.787.7,1.511,1.875,2.09a25.138,25.138,0,0,1,5.131-5.432C394.142,130.715,391.151,132.078,391.151,133.705Z" transform="translate(-375.208 -125.05)" fill="#e19974"/>
    <g id="XMLID_227_" transform="translate(0.014 10.846)">
      <g id="Group_173" data-name="Group 173">
        <path id="Path_59" data-name="Path 59" d="M255.635,1087.409a25.006,25.006,0,0,1-31.76,0s9.922,2.216,15.881,2.216S255.635,1087.409,255.635,1087.409Z" transform="translate(-214.764 -1053.932)" fill="#e8ad8c"/>
        <g id="Group_172" data-name="Group 172">
          <path id="Path_60" data-name="Path 60" d="M50.33,634.068a24.869,24.869,0,0,1-1.987,8.979,21.925,21.925,0,0,1-4.971,2.626,9.493,9.493,0,0,0-3.4,2.23,10.089,10.089,0,0,1-6.351,2.863,10.132,10.132,0,0,1-6.665-1.609,2.875,2.875,0,0,0-.767-.381,2.775,2.775,0,0,0-.845-.133c-9.85,0-18.443-2.253-23.006-5.6a24.853,24.853,0,0,1-1.986-8.976h0c3.214,3.836,11.316,6.709,21.174,7.3a7,7,0,0,0,5.021-1.752,10.322,10.322,0,0,1,5.849-2.385,10.52,10.52,0,0,1,5.561.961,6.945,6.945,0,0,0,5.634.235A31.426,31.426,0,0,0,50.33,634.068Z" transform="translate(-0.347 -619.07)" fill="#fdb97e"/>
          <path id="Path_61" data-name="Path 61" d="M67.721,273.96c.308,1.469-12.781,6.636-24.2,7.145-11.688.521-24.73-5.76-24.2-7.145a24.865,24.865,0,0,1,3.591-7.854c-.574,1.429,9.932,8.032,20.613,7.6s21.231-5.966,20.613-7.6A24.865,24.865,0,0,1,67.721,273.96Z" transform="translate(-18.525 -266.106)" fill="#fdb97e"/>
        </g>
      </g>
    </g>
    <ellipse id="Ellipse_15" data-name="Ellipse 15" cx="5.112" cy="3.911" rx="5.112" ry="3.911" transform="translate(27.357 32.18) rotate(-2.636)" fill="#fedbbd"/>
  </g>
  <path id="Path_62" data-name="Path 62" d="M14.783,640.6c-6.72-1.225-11.991-3.585-14.435-6.5h0a24.854,24.854,0,0,0,1.986,8.976c3.506,2.57,9.394,4.5,16.4,5.25A24.922,24.922,0,0,1,14.783,640.6Z" transform="translate(-0.333 -608.252)" fill="#fea95c"/>
  <path id="Path_63" data-name="Path 63" d="M246.433,1092.206a47.2,47.2,0,0,1-6.051-2.575q-.314,0-.629,0c-5.958,0-15.881-2.216-15.881-2.216a25.055,25.055,0,0,0,22.561,4.787Z" transform="translate(-214.748 -1043.095)" fill="#e19974"/>
  <path id="Path_64" data-name="Path 64" d="M28.963,272.211a36.717,36.717,0,0,1-10.287-6.1,25.8,25.8,0,0,0-3.785,8.656c-.08.158,5.635,3.184,12.751,5.015A25.176,25.176,0,0,1,28.963,272.211Z" transform="translate(-14.283 -255.26)" fill="#fea95c"/>
</svg>
