<svg id="flat" xmlns="http://www.w3.org/2000/svg" width="54.324" height="34.655" viewBox="0 0 54.324 34.655">
  <path id="Path_88" data-name="Path 88" d="M3.746,11.239,0,4.683,6.556,0h10.3l7.493,4.683-3.746,6.556L15.923,9.366H8.43Z" transform="translate(14.986 0)" fill="#4f83d1"/>
  <path id="Path_89" data-name="Path 89" d="M0,0H1.873V5.924H0Z" transform="matrix(0.949, -0.316, 0.316, 0.949, 20.657, 7.007)" fill="#f4f4e6"/>
  <path id="Path_90" data-name="Path 90" d="M0,0H5.924V1.873H0Z" transform="matrix(0.316, -0.949, 0.949, 0.316, 30.019, 12.033)" fill="#f4f4e6"/>
  <path id="Path_91" data-name="Path 91" d="M0,0,4.683,1.873V22.479L0,20.606Z" transform="translate(30.909 9.366)" fill="#4da6ea"/>
  <path id="Path_92" data-name="Path 92" d="M0,0H7.493V20.606H0Z" transform="translate(23.416 9.366)" fill="#fcf05a"/>
  <path id="Path_93" data-name="Path 93" d="M4.683,20.606,0,22.479V1.873L4.683,0Z" transform="translate(18.732 9.366)" fill="#4da6ea"/>
  <path id="Path_94" data-name="Path 94" d="M0,1.873,4.683,0h7.493l4.683,1.873-4.683,2.81H4.683Z" transform="translate(18.732 29.972)" fill="#195c85"/>
  <path id="Path_95" data-name="Path 95" d="M0,6.556,4.683,4.683V0L0,1.873Z" transform="translate(18.732 25.289)" fill="#4f83d1"/>
  <path id="Path_96" data-name="Path 96" d="M4.683,6.556,0,4.683V0L4.683,1.873Z" transform="translate(30.909 25.289)" fill="#4f83d1"/>
  <path id="Path_97" data-name="Path 97" d="M0,0H7.493V4.683H0Z" transform="translate(23.416 25.289)" fill="#f9bb4b"/>
  <path id="Path_98" data-name="Path 98" d="M0,0H1.873V1.873H0Z" transform="translate(26.225 15.923)" fill="#8ec13f"/>
  <path id="Path_99" data-name="Path 99" d="M0,0H1.873V1.873H0Z" transform="translate(26.225 12.176)" fill="#8ec13f"/>
  <path id="Path_100" data-name="Path 100" d="M0,0H7.493V18.732H0Z" transform="translate(0 12.176)" fill="#4f83d1"/>
  <path id="Path_101" data-name="Path 101" d="M0,0H7.493V18.732H0Z" transform="translate(7.493 12.176)" fill="#32b1cc"/>
  <path id="Path_102" data-name="Path 102" d="M0,0H3.746V5.62H0Z" transform="translate(14.986 18.732)" fill="#f9bb4b"/>
  <g id="Group_12" data-name="Group 12" transform="translate(2.81 14.986)">
    <path id="Path_103" data-name="Path 103" d="M0,0H1.873V1.873H0Z" transform="translate(0)" fill="#fcf05a"/>
    <path id="Path_104" data-name="Path 104" d="M0,0H1.873V1.873H0Z" transform="translate(0 3.746)" fill="#fcf05a"/>
    <path id="Path_105" data-name="Path 105" d="M0,0H1.873V1.873H0Z" transform="translate(0 7.493)" fill="#fcf05a"/>
    <path id="Path_106" data-name="Path 106" d="M0,0H1.873V1.873H0Z" transform="translate(0 11.239)" fill="#fcf05a"/>
    <path id="Path_107" data-name="Path 107" d="M0,0H1.873V1.873H0Z" transform="translate(7.493)" fill="#fcf05a"/>
    <path id="Path_108" data-name="Path 108" d="M0,0H1.873V1.873H0Z" transform="translate(7.493 3.746)" fill="#fcf05a"/>
    <path id="Path_109" data-name="Path 109" d="M0,0H1.873V1.873H0Z" transform="translate(7.493 7.493)" fill="#fcf05a"/>
    <path id="Path_110" data-name="Path 110" d="M0,0H1.873V1.873H0Z" transform="translate(7.493 11.239)" fill="#fcf05a"/>
  </g>
  <path id="Path_111" data-name="Path 111" d="M0,0H7.493V18.732H0Z" transform="translate(54.324 30.909) rotate(180)" fill="#4f83d1"/>
  <path id="Path_112" data-name="Path 112" d="M0,0H7.493V18.732H0Z" transform="translate(46.831 30.909) rotate(180)" fill="#32b1cc"/>
  <path id="Path_113" data-name="Path 113" d="M0,0H3.746V5.62H0Z" transform="translate(39.338 24.352) rotate(180)" fill="#f9bb4b"/>
  <path id="Path_114" data-name="Path 114" d="M0,0H1.873V1.873H0Z" transform="translate(49.641 26.225)" fill="#fcf05a"/>
  <path id="Path_115" data-name="Path 115" d="M0,0H1.873V1.873H0Z" transform="translate(49.641 22.479)" fill="#fcf05a"/>
  <path id="Path_116" data-name="Path 116" d="M0,0H1.873V1.873H0Z" transform="translate(49.641 18.732)" fill="#fcf05a"/>
  <path id="Path_117" data-name="Path 117" d="M0,0H1.873V1.873H0Z" transform="translate(49.641 14.986)" fill="#fcf05a"/>
  <path id="Path_118" data-name="Path 118" d="M0,0H1.873V1.873H0Z" transform="translate(42.148 26.225)" fill="#fcf05a"/>
  <path id="Path_119" data-name="Path 119" d="M0,0H1.873V1.873H0Z" transform="translate(42.148 22.479)" fill="#fcf05a"/>
  <path id="Path_120" data-name="Path 120" d="M0,0H1.873V1.873H0Z" transform="translate(42.148 18.732)" fill="#fcf05a"/>
  <path id="Path_121" data-name="Path 121" d="M0,0H1.873V1.873H0Z" transform="translate(42.148 14.986)" fill="#fcf05a"/>
</svg>
