<svg id="astronomy" xmlns="http://www.w3.org/2000/svg" width="50.279" height="50.279" viewBox="0 0 50.279 50.279">
  <path id="Path_65" data-name="Path 65" d="M50.279,53.554a25.022,25.022,0,0,1-3.69,13.119L21.362,78.411a25.1,25.1,0,0,1-15.279-8.46L4.812,63.813.8,59.88A25.177,25.177,0,0,1,17.408,29.625l7.732,1.241,9.931-.415a25.061,25.061,0,0,1,2.547,1.273,8.28,8.28,0,0,0,2.547.2s-.218,1.307.169,1.6a25.1,25.1,0,0,1,9.946,20.03Z" transform="translate(0 -28.411)" fill="#ffed6a"/>
  <path id="Path_66" data-name="Path 66" d="M213.279,69.317l5.683-2.645a25.151,25.151,0,0,0-6.256-33.149c-.387-.294-.169-1.6-.169-1.6a8.28,8.28,0,0,1-2.547-.2,25.05,25.05,0,0,0-2.547-1.273l-9.931.415-7.732-1.241a25.136,25.136,0,0,0-10.043,6.151Z" transform="translate(-172.374 -28.411)" fill="#ffb454"/>
  <path id="Path_67" data-name="Path 67" d="M521.331,945.419a25.131,25.131,0,0,0,25.224-11.734C527.916,936.839,522.41,943.753,521.331,945.419Z" transform="translate(-499.968 -895.425)" fill="#ffb454"/>
  <path id="Path_68" data-name="Path 68" d="M976.288,933.684c-2.521.427-4.8.923-6.862,1.464l3.188,3.188A25.231,25.231,0,0,0,976.288,933.684Z" transform="translate(-929.701 -895.425)" fill="#ff8659"/>
  <path id="Path_69" data-name="Path 69" d="M44,0a25.124,25.124,0,0,0-7.732,1.214h0s-3.1,19.157-16.6,30.255a25.041,25.041,0,0,0,2.51,6.144,8.663,8.663,0,0,1,.391,2.183s1.094.124,1.427.561q.459.6.954,1.178C40.8,25.341,32.515,11.416,53.928,2.04A24.974,24.974,0,0,0,44,0Z" transform="translate(-18.857)" fill="#ffb454"/>
  <path id="Path_70" data-name="Path 70" d="M353.109,2.04a25.214,25.214,0,0,0-17.663-.826h0a58.964,58.964,0,0,1-3.818,12.376l5.114,5.114c2.559-6.457,5.944-12.1,16.368-16.663Z" transform="translate(-318.039 0)" fill="#ff8659"/>
  <path id="Path_71" data-name="Path 71" d="M49.291,1.124C48.156-.011,46.353-.234,43.934.462a27.723,27.723,0,0,0-6.245,2.916A25.16,25.16,0,0,1,40.432,5.2C45,2.667,46.862,2.861,47.208,3.207c.391.391.589,2.725-3.145,8.741a104.537,104.537,0,0,1-14.5,17.6,104.539,104.539,0,0,1-17.6,14.5C5.941,47.788,3.608,47.59,3.217,47.2c-.345-.345-.54-2.206,1.991-6.779A25.274,25.274,0,0,1,3.39,37.675,27.719,27.719,0,0,0,.47,43.928c-.695,2.418-.471,4.219.663,5.354A3.889,3.889,0,0,0,4.007,50.34a9.087,9.087,0,0,0,2.484-.4,29.58,29.58,0,0,0,7.02-3.388A107.5,107.5,0,0,0,31.645,31.636,107.5,107.5,0,0,0,46.566,13.5a29.58,29.58,0,0,0,3.388-7.02c.7-2.42.473-4.223-.662-5.358Z" transform="translate(-0.072 -0.063)" fill="#5e54ac"/>
  <path id="Path_72" data-name="Path 72" d="M719.647,29.553l2.083,2.083h0A107.505,107.505,0,0,0,736.651,13.5a29.578,29.578,0,0,0,3.388-7.02c.7-2.42.473-4.222-.662-5.358s-2.938-1.358-5.357-.662a27.725,27.725,0,0,0-6.245,2.916A25.159,25.159,0,0,1,730.517,5.2c4.571-2.529,6.431-2.335,6.776-1.99.391.391.589,2.725-3.145,8.741A104.542,104.542,0,0,1,719.647,29.553Z" transform="translate(-690.158 -0.063)" fill="#453d81"/>
  <circle id="Ellipse_16" data-name="Ellipse 16" cx="5.696" cy="5.696" r="5.696" transform="translate(29.678 19.444)" fill="#ff3c7d"/>
</svg>
