<svg xmlns="http://www.w3.org/2000/svg" width="172.965" height="174.884" viewBox="0 0 172.965 174.884">
  <g id="_015---Astronaut" data-name="015---Astronaut" transform="translate(17.134 -15.431) rotate(14)">
    <path id="Shape" d="M158.2,360.026a63.6,63.6,0,0,1-48.717,32.418A79.822,79.822,0,0,1,92.363,426.3,30.9,30.9,0,0,0,84.355,446.7a10.3,10.3,0,1,1-20.6,0,49.747,49.747,0,0,1,3.6-18.565l-10.3-4.686a30.306,30.306,0,0,0-6.154,17.87,10.557,10.557,0,0,1-9.167,10.531,10.3,10.3,0,0,1-11.561-10.3,51.318,51.318,0,0,1,13.261-34.066,58.013,58.013,0,0,0,11.845-22.453A50.391,50.391,0,0,1,29.2,397.775a7.725,7.725,0,0,1-8.935-8.266,8.085,8.085,0,0,1,6.927-7.184,36.821,36.821,0,0,0,22.4-13.9,7.725,7.725,0,0,1,8.832-3.09v-3.219c55.283,9.424,54.073,9.012,54.073,9.27a3.708,3.708,0,0,0,4.712,3.759A48.434,48.434,0,0,0,144.3,353.074,7.725,7.725,0,0,1,158.1,360Z" transform="translate(0 -305.078)" fill="#3f5c6c"/>
    <path id="Shape-2" data-name="Shape" d="M286.144,894.265c-19.827,0-22.968-11.742-23.174-12.257a2.611,2.611,0,0,1,5.047-1.339c.129.412,2.575,8.368,18.024,8.368a2.575,2.575,0,1,1,0,5.15Z" transform="translate(-212.089 -768.094)" fill="#35495e"/>
    <path id="Shape-3" data-name="Shape" d="M387.378,606.531a2.575,2.575,0,0,1-2.575-2.292,43.027,43.027,0,0,1,14.085-36.332,2.579,2.579,0,1,1,3.476,3.811,37.928,37.928,0,0,0-12.437,32.032,2.575,2.575,0,0,1-2.549,2.781Z" transform="translate(-318.473 -495.81)" fill="#35495e"/>
    <path id="Shape-4" data-name="Shape" d="M355.746,728.61c-21.423,0-29.817-8.137-30.152-8.472a2.576,2.576,0,0,1,3.631-3.656c.154.129,7.57,6.978,26.521,6.978a2.575,2.575,0,0,1,0,5.15Z" transform="translate(-266.241 -625.614)" fill="#35495e"/>
    <g id="组_181" data-name="组 181" transform="translate(118.112)">
      <path id="Shape-5" data-name="Shape" d="M1147.775,1119.75a2.575,2.575,0,0,1-2.575-2.575v-10.3a2.575,2.575,0,1,1,5.15,0v10.3A2.575,2.575,0,0,1,1147.775,1119.75Z" transform="translate(-1101.427 -965.255)" fill="#f0c419"/>
      <path id="Shape-6" data-name="Shape" d="M1117.175,1150.35h-10.3a2.575,2.575,0,1,1,0-5.15h10.3a2.575,2.575,0,1,1,0,5.15Z" transform="translate(-1065.677 -1001.005)" fill="#f0c419"/>
      <path id="Shape-7" data-name="Shape" d="M841.025,833.449a2.575,2.575,0,0,1-2.575-2.575v-10.3a2.575,2.575,0,1,1,5.15,0v10.3A2.575,2.575,0,0,1,841.025,833.449Z" transform="translate(-833.3 -715.004)" fill="#f0c419"/>
      <path id="Shape-8" data-name="Shape" d="M810.425,864.05h-10.3a2.575,2.575,0,0,1,0-5.15h10.3a2.575,2.575,0,1,1,0,5.15Z" transform="translate(-797.55 -750.754)" fill="#f0c419"/>
      <path id="Shape-9" data-name="Shape" d="M1065.975,15.449a2.575,2.575,0,0,1-2.575-2.575V2.575a2.575,2.575,0,1,1,5.15,0v10.3A2.575,2.575,0,0,1,1065.975,15.449Z" transform="translate(-1029.926)" fill="#f0c419"/>
      <path id="Shape-10" data-name="Shape" d="M1035.375,46.05h-10.3a2.575,2.575,0,0,1,0-5.15h10.3a2.575,2.575,0,1,1,0,5.15Z" transform="translate(-994.176 -35.75)" fill="#f0c419"/>
    </g>
    <path id="Shape-11" data-name="Shape" d="M128.75,583.807a48.93,48.93,0,0,1-9.321,3.965,37.208,37.208,0,0,0-3.682-15.038,35.685,35.685,0,0,0,8.755-4.429A45.214,45.214,0,0,1,128.75,583.807Z" transform="translate(-83.483 -496.749)" fill="#35495e"/>
    <path id="Shape-12" data-name="Shape" d="M915.836,458.7a61.8,61.8,0,0,1-8.394,7.725,26.984,26.984,0,0,1-10.3-11.407,49.931,49.931,0,0,0,7.9-7.158A34.738,34.738,0,0,0,915.836,458.7Z" transform="translate(-766.49 -391.465)" fill="#35495e"/>
    <path id="Shape-13" data-name="Shape" d="M386.448,1091.07a10.3,10.3,0,1,1-20.6,0V1088.5a24.436,24.436,0,0,1,20.6,0C386.731,1088.5,386.448,1088.186,386.448,1091.07Z" transform="translate(-302.093 -949.45)" fill="#35495e"/>
    <path id="Shape-14" data-name="Shape" d="M119.908,1047.884a23.373,23.373,0,0,0-.129,2.343,10.557,10.557,0,0,1-9.038,10.532,10.3,10.3,0,0,1-11.561-10.3v-2.575a24.847,24.847,0,0,1,20.6,0Z" transform="translate(-69.002 -913.988)" fill="#35495e"/>
    <path id="Shape-15" data-name="Shape" d="M371.863,465.866a36.049,36.049,0,0,1-57.137-9.733,5.327,5.327,0,0,1,1.107.258v-3.219c55.283,9.424,54.073,9.012,54.073,9.27A3.759,3.759,0,0,0,371.863,465.866Z" transform="translate(-257.407 -396.112)" fill="#35495e"/>
    <path id="Shape-16" data-name="Shape" d="M284.05,56.5A36.049,36.049,0,1,0,320.1,20.45,36.049,36.049,0,0,0,284.05,56.5Z" transform="translate(-230.595 -17.875)" fill="#2c3e50"/>
    <path id="Shape-17" data-name="Shape" d="M443.8,145.419a36.049,36.049,0,0,1-53.584,31.491,70.346,70.346,0,0,1-5.639-34.066s.257-.515.747-1.416c3.5-6.1,19.544-29.354,53.61-14.213a35.842,35.842,0,0,1,4.867,18.2Z" transform="translate(-318.251 -106.796)" fill="#f29c1f"/>
    <path id="Shape-18" data-name="Shape" d="M443.239,285.4a36.049,36.049,0,0,1-53.017,25.131,70.346,70.346,0,0,1-5.639-34.066s.258-.515.747-1.416c12.1,14.291,31.285,25.981,57.91,10.351Z" transform="translate(-318.252 -240.42)" fill="#e57e25"/>
    <path id="Shape-19" data-name="Shape" d="M552.476,389.737a2.575,2.575,0,1,1,0-5.15,23.174,23.174,0,0,0,21.217-13.879,2.575,2.575,0,0,1,4.712,2.06A28.324,28.324,0,0,1,552.476,389.737Z" transform="translate(-462.971 -322.79)" fill="#f3d55b"/>
    <circle id="Oval" cx="2.575" cy="2.575" r="2.575" transform="translate(112.679 36.049)" fill="#f3d55b"/>
  </g>
</svg>
